<?xml version="1.0" encoding="utf-8"?>
<!-- Generator: Adobe Illustrator 18.0.0, SVG Export Plug-In . SVG Version: 6.00 Build 0)  -->
<!DOCTYPE svg PUBLIC "-//W3C//DTD SVG 1.1//EN" "http://www.w3.org/Graphics/SVG/1.1/DTD/svg11.dtd">
<svg version="1.1" xmlns="http://www.w3.org/2000/svg" xmlns:xlink="http://www.w3.org/1999/xlink" x="0px" y="0px" width="2800px"
	 height="2800px" viewBox="0 0 2800 2800" enable-background="new 0 0 2800 2800" xml:space="preserve">
<g id="BACKGROUND">
	<g>
		<rect fill="#FFFFFF" width="2800" height="2800"/>
	</g>
	<g>
		<rect fill="#F6FFEB" width="2800" height="2800"/>
	</g>
	<g opacity="0.2">
		<polygon fill="#39B54A" points="599.5,2710.1 605.6,2732.1 628.4,2726.3 622.3,2704.2 		"/>
		<polygon fill="#39B54A" points="932,2700.3 946.6,2716.4 963.2,2702.3 948.7,2686.2 		"/>
		<polygon fill="#39B54A" points="1046.3,2432.5 1054.5,2442.5 1064.8,2434.5 1056.5,2424.6 		"/>
		<polygon fill="#39B54A" points="1278.3,2425.3 1297.1,2434.4 1306.5,2416.2 1287.7,2407.2 		"/>
		<polygon fill="#39B54A" points="87.3,2677 106.1,2686 115.5,2667.9 96.7,2658.8 		"/>
		<polygon fill="#39B54A" points="1528.8,2410.5 1530.3,2433.2 1553.7,2431.8 1552.3,2409.1 		"/>
		<polygon fill="#39B54A" points="1837.3,2523.9 1851.6,2524.6 1852.2,2510.8 1838,2510.2 		"/>
		<polygon fill="#39B54A" points="2061.1,2496.3 2072.3,2516 2092.7,2505.2 2081.5,2485.5 		"/>
		<polygon fill="#39B54A" points="1673.2,2654.3 1684.4,2674.1 1704.8,2663.2 1693.6,2643.5 		"/>
		<polygon fill="#39B54A" points="2316.8,2570.2 2326.2,2575.3 2331.4,2566.3 2322.1,2561.2 		"/>
		<polygon fill="#39B54A" points="2578.2,2695.8 2588.3,2701.3 2594,2691.6 2583.9,2686 		"/>
		<polygon fill="#39B54A" points="2744.4,2313.8 2729.6,2320.5 2736.7,2334.8 2751.4,2328 		"/>
		<polygon fill="#39B54A" points="2368.6,2411.2 2379.1,2415.1 2383.1,2405 2372.7,2401.1 		"/>
		<polygon fill="#39B54A" points="2081.4,2361.7 2094.1,2377.7 2110.7,2365.4 2098,2349.4 		"/>
		<polygon fill="#39B54A" points="2639.3,2603.9 2652,2619.9 2668.6,2607.6 2655.9,2591.6 		"/>
		<polygon fill="#39B54A" points="1780.4,2386.4 1796.5,2388.8 1799,2373.3 1782.9,2370.9 		"/>
		<polygon fill="#39B54A" points="1488.9,2085.6 1493,2101.1 1509.1,2097.1 1505,2081.6 		"/>
		<polygon fill="#39B54A" points="1188.6,2202.4 1189,2224 1211.4,2223.7 1211,2202 		"/>
		<polygon fill="#39B54A" points="915.5,2428.5 930.4,2429.8 931.8,2415.4 916.9,2414.1 		"/>
		<polygon fill="#39B54A" points="611.3,2421.3 620.1,2410.2 608.6,2401.6 599.7,2412.8 		"/>
		<polygon fill="#39B54A" points="379.9,2301.5 387.7,2319.9 406.8,2312.4 399,2294 		"/>
		<polygon fill="#39B54A" points="259.8,2147.1 273.3,2161 287.7,2148 274.1,2134.1 		"/>
		<polygon fill="#39B54A" points="504.7,2059.6 514.1,2065.8 520.5,2056.7 511.1,2050.5 		"/>
		<polygon fill="#39B54A" points="726.3,2099.3 741.6,2102 744.4,2087.2 729.1,2084.5 		"/>
		<polygon fill="#39B54A" points="947.6,2132.3 959.2,2152.7 980.3,2141.5 968.7,2121.1 		"/>
		<polygon fill="#39B54A" points="1190.2,1848.8 1199.1,1867.1 1218.1,1858.5 1209.2,1840.1 		"/>
		<polygon fill="#39B54A" points="1409.6,1893.2 1420.1,1903.6 1430.8,1893.4 1420.3,1883 		"/>
		<polygon fill="#39B54A" points="1649.4,1817 1671.2,1820.9 1675.3,1799.9 1653.5,1796 		"/>
		<polygon fill="#39B54A" points="1923.1,2000.1 1932.9,2011.3 1944.5,2001.8 1934.7,1990.6 		"/>
		<polygon fill="#39B54A" points="2188.8,1797.4 2202.7,1800.5 2205.9,1787.1 2192,1784 		"/>
		<polygon fill="#39B54A" points="2489.9,1942.3 2498.3,1949.8 2506.1,1941.7 2497.7,1934.1 		"/>
		<polygon fill="#39B54A" points="2521.2,1777.5 2534.4,1793.8 2551.3,1781 2538,1764.7 		"/>
		<polygon fill="#39B54A" points="2406.2,1422.9 2391.5,1429.7 2398.5,1443.9 2413.3,1437.2 		"/>
		<polygon fill="#39B54A" points="2415.5,1657.9 2426,1661.9 2430.1,1651.7 2419.6,1647.8 		"/>
		<polygon fill="#39B54A" points="2536.8,1189 2545.2,1196.5 2553.1,1188.4 2544.6,1180.8 		"/>
		<polygon fill="#39B54A" points="2568.1,1024.3 2581.3,1040.6 2598.2,1027.8 2584.9,1011.5 		"/>
		<polygon fill="#39B54A" points="2260.7,1640.6 2273,1645.8 2278.4,1634 2266.1,1628.7 		"/>
		<polygon fill="#39B54A" points="2034,1628 2044.5,1632.8 2049.5,1622.6 2039,1617.8 		"/>
		<polygon fill="#39B54A" points="1778.4,1357.3 1796.4,1365.1 1804.4,1347.6 1786.4,1339.9 		"/>
		<polygon fill="#39B54A" points="1517.6,1542.2 1502,1560.1 1520.6,1575.2 1536.1,1557.3 		"/>
		<polygon fill="#39B54A" points="630.5,1808.1 615,1826.1 633.5,1841.1 649.1,1823.2 		"/>
		<polygon fill="#39B54A" points="1285.4,1492.1 1264.3,1496.1 1268.5,1516.5 1289.6,1512.5 		"/>
		<polygon fill="#39B54A" points="960.5,1526.9 962.3,1546.6 982.7,1544.8 980.8,1525.2 		"/>
		<polygon fill="#39B54A" points="707.4,1322.8 698.4,1341.5 717.8,1350.2 726.7,1331.4 		"/>
		<polygon fill="#39B54A" points="401.2,1565.9 423.2,1575.8 433.5,1554.6 411.5,1544.7 		"/>
		<polygon fill="#39B54A" points="101.4,1981.7 123.3,1991.7 133.6,1970.5 111.7,1960.5 		"/>
		<polygon fill="#39B54A" points="48.6,1396.6 63.6,1405.2 72.5,1390.7 57.4,1382.1 		"/>
		<polygon fill="#39B54A" points="336.6,1200.1 340.2,1210.3 350.7,1206.8 347.1,1196.6 		"/>
		<polygon fill="#39B54A" points="614.2,1205.5 623.2,1213.2 631.2,1204.5 622.2,1196.7 		"/>
		<polygon fill="#39B54A" points="866.2,1189.9 883.3,1202.7 896.5,1186.2 879.5,1173.4 		"/>
		<polygon fill="#39B54A" points="1117.5,1277.8 1132.5,1277.9 1132.7,1263.4 1117.7,1263.2 		"/>
		<polygon fill="#39B54A" points="755.8,1137.5 757.7,1157.1 778,1155.4 776.2,1135.7 		"/>
		<polygon fill="#39B54A" points="502.7,933.3 493.8,952.1 513.1,960.7 522.1,942 		"/>
		<polygon fill="#39B54A" points="196.6,1176.4 218.5,1186.4 228.8,1165.2 206.8,1155.2 		"/>
		<polygon fill="#39B54A" points="409.6,816 418.6,823.7 426.6,815 417.6,807.3 		"/>
		<polygon fill="#39B54A" points="661.6,800.5 678.6,813.3 691.9,796.8 674.8,784 		"/>
		<polygon fill="#39B54A" points="912.9,888.3 927.9,888.5 928.1,874 913.1,873.8 		"/>
		<polygon fill="#39B54A" points="1396.7,1222.3 1384.2,1236.6 1399,1248.7 1411.5,1234.4 		"/>
		<polygon fill="#39B54A" points="1615,1049.8 1628.2,1062.5 1641.4,1049.7 1628.1,1037 		"/>
		<polygon fill="#39B54A" points="1874.4,1137.5 1886.8,1140.8 1890.3,1128.8 1877.8,1125.5 		"/>
		<polygon fill="#39B54A" points="2186.5,1125.5 2193.1,1145.9 2214.2,1139.5 2207.6,1119.1 		"/>
		<polygon fill="#39B54A" points="2172.7,1405 2179.3,1425.4 2200.4,1419 2193.7,1398.6 		"/>
		<polygon fill="#39B54A" points="2477,1015.2 2465.6,1033.9 2484.9,1044.9 2496.2,1026.2 		"/>
		<polygon fill="#39B54A" points="2643.5,897.6 2647.2,911.8 2661.9,908.2 2658.2,894 		"/>
		<polygon fill="#39B54A" points="2508.5,665.6 2495.5,683.2 2513.7,695.8 2526.7,678.1 		"/>
		<polygon fill="#39B54A" points="2186.2,822.7 2173.2,840.4 2191.4,852.9 2204.4,835.3 		"/>
		<polygon fill="#39B54A" points="2200.7,593.4 2189.5,592.8 2188.8,603.6 2200,604.3 		"/>
		<polygon fill="#39B54A" points="1926.9,859 1929.5,880.9 1952.2,878.4 1949.6,856.5 		"/>
		<polygon fill="#39B54A" points="1681.6,699.3 1701.4,702.9 1705.2,683.9 1685.4,680.2 		"/>
		<polygon fill="#39B54A" points="522.1,269.1 541.8,272.8 545.6,253.7 525.9,250 		"/>
		<polygon fill="#39B54A" points="1480.5,862.2 1464.9,872.2 1475.3,887.2 1490.8,877.2 		"/>
		<polygon fill="#39B54A" points="1240.7,812.5 1246.9,823.5 1258.3,817.5 1252.1,806.5 		"/>
		<polygon fill="#39B54A" points="1022.2,767 1026.2,780.2 1039.9,776.4 1035.9,763.1 		"/>
		<polygon fill="#39B54A" points="770.8,599.4 775.8,618.2 795.3,613.3 790.2,594.5 		"/>
		<polygon fill="#39B54A" points="481.8,868.6 491.1,876.7 499.5,867.7 490.2,859.6 		"/>
		<polygon fill="#39B54A" points="237.5,835.7 239.5,851.6 256,849.6 253.9,833.7 		"/>
		<polygon fill="#39B54A" points="394.7,661.4 379.4,656.3 374,671 389.3,676.2 		"/>
		<polygon fill="#39B54A" points="582.2,464 571.3,481.2 589,491.7 600,474.6 		"/>
		<polygon fill="#39B54A" points="833.5,437.5 840.1,448.8 851.7,442.4 845.2,431.2 		"/>
		<polygon fill="#39B54A" points="1137.1,615 1146,622.2 1153.5,613.6 1144.6,606.4 		"/>
		<polygon fill="#39B54A" points="1339,344.8 1339.8,357.6 1353,356.9 1352.2,344.1 		"/>
		<polygon fill="#39B54A" points="1675,513.8 1659.4,499 1644,514 1659.6,528.9 		"/>
		<polygon fill="#39B54A" points="1834.9,267.7 1852.8,277.2 1862.5,259.9 1844.6,250.5 		"/>
		<polygon fill="#39B54A" points="2150,410.5 2151.1,429.8 2171.1,428.6 2169.9,409.3 		"/>
		<polygon fill="#39B54A" points="2402,207.6 2412.6,217.1 2422.4,206.9 2411.8,197.4 		"/>
		<polygon fill="#39B54A" points="2232.5,142.7 2238.1,158.6 2254.5,153.2 2248.9,137.3 		"/>
		<polygon fill="#39B54A" points="1832.4,546 1846.3,564 1865,550.7 1851.1,532.6 		"/>
		<polygon fill="#39B54A" points="1510.2,242.2 1490.1,229 1476.5,248.4 1496.5,261.6 		"/>
		<polygon fill="#39B54A" points="1550,653.2 1530,640 1516.3,659.3 1536.4,672.5 		"/>
		<polygon fill="#39B54A" points="1275.2,347.8 1255.1,334.6 1241.4,353.9 1261.5,367.1 		"/>
		<polygon fill="#39B54A" points="1443.9,88.2 1454.4,90 1456.2,79.8 1445.7,78.1 		"/>
		<polygon fill="#39B54A" points="1129.5,171.9 1145.9,185 1159.6,169.2 1143.1,156 		"/>
		<polygon fill="#39B54A" points="830.2,257.9 830.6,278.6 852.1,278.3 851.7,257.5 		"/>
		<polygon fill="#39B54A" points="1806.4,51.8 1789.7,64.2 1802.5,81.4 1819.2,69 		"/>
		<polygon fill="#39B54A" points="617.8,71.6 623,83.2 635,78.2 629.8,66.6 		"/>
		<polygon fill="#39B54A" points="348.7,147.5 356,155.7 364.5,148.6 357.2,140.4 		"/>
		<polygon fill="#39B54A" points="92.7,162.8 113.1,168.7 119.3,149 98.8,143 		"/>
	</g>
	<g opacity="0.2">
		<g>
			<g>
				<g>
					<ellipse fill="#277D34" cx="2652.5" cy="2441.2" rx="8.2" ry="8.1"/>
				</g>
			</g>
		</g>
		<g>
			<g>
				<g>
					<ellipse fill="#277D34" cx="2710" cy="2223.3" rx="10.6" ry="10.4"/>
				</g>
			</g>
		</g>
		<g>
			<g>
				<g>
					<ellipse fill="#277D34" cx="2756.3" cy="2045.9" rx="9.6" ry="9.5"/>
				</g>
			</g>
		</g>
		<g>
			<g>
				<g>
					<ellipse fill="#277D34" cx="2672.6" cy="1876.9" rx="9.1" ry="9"/>
				</g>
			</g>
		</g>
		<g>
			<g>
				<g>
					<ellipse fill="#277D34" cx="2642.8" cy="1676.6" rx="11.2" ry="11"/>
				</g>
			</g>
		</g>
		<g>
			<g>
				<g>
					<ellipse fill="#277D34" cx="2718.6" cy="1512.8" rx="7.8" ry="7.7"/>
				</g>
			</g>
		</g>
		<g>
			<g>
				<g>
					<ellipse fill="#277D34" cx="2541.9" cy="1326.6" rx="10.2" ry="10"/>
				</g>
			</g>
		</g>
		<g>
			<g>
				<g>
					<ellipse fill="#277D34" cx="2734.2" cy="1141.6" rx="8.1" ry="8"/>
				</g>
			</g>
		</g>
		<g>
			<g>
				<g>
					<ellipse fill="#277D34" cx="2598.9" cy="941.4" rx="8" ry="7.9"/>
				</g>
			</g>
		</g>
		<g>
			<g>
				<g>
					<ellipse fill="#277D34" cx="2683.5" cy="773" rx="9.9" ry="9.7"/>
				</g>
			</g>
		</g>
		<g>
			<g>
				<g>
					<ellipse fill="#277D34" cx="2708.5" cy="598.8" rx="8.2" ry="8"/>
				</g>
			</g>
		</g>
		<g>
			<g>
				<g>
					<ellipse fill="#277D34" cx="2702.7" cy="433.2" rx="10.2" ry="10"/>
				</g>
			</g>
		</g>
		<g>
			<g>
				<g>
					<ellipse fill="#277D34" cx="2602" cy="295.1" rx="9.1" ry="8.9"/>
				</g>
			</g>
		</g>
		<g>
			<g>
				<g>
					<ellipse fill="#277D34" cx="2688.8" cy="83.6" rx="8.7" ry="8.6"/>
				</g>
			</g>
		</g>
		<g>
			<g>
				<g>
					<ellipse fill="#277D34" cx="2602.2" cy="181.7" rx="10.3" ry="10.1"/>
				</g>
			</g>
		</g>
		<g>
			<g>
				<g>
					<ellipse fill="#277D34" cx="2369" cy="261.4" rx="11" ry="10.8"/>
				</g>
			</g>
		</g>
		<g>
			<g>
				<g>
					<ellipse fill="#277D34" cx="2445.5" cy="501.4" rx="11.7" ry="11.5"/>
				</g>
			</g>
		</g>
		<g>
			<g>
				<g>
					<ellipse fill="#277D34" cx="2319" cy="688.7" rx="8.8" ry="8.7"/>
				</g>
			</g>
		</g>
		<g>
			<g>
				<g>
					<ellipse fill="#277D34" cx="2459.6" cy="902.9" rx="9.8" ry="9.7"/>
				</g>
			</g>
		</g>
		<g>
			<g>
				<g>
					<ellipse fill="#277D34" cx="2441.4" cy="1061.6" rx="12.2" ry="12"/>
				</g>
			</g>
		</g>
		<g>
			<g>
				<g>
					<ellipse fill="#277D34" cx="2250.5" cy="1227.8" rx="12.1" ry="11.9"/>
				</g>
			</g>
		</g>
		<g>
			<g>
				<g>
					<ellipse fill="#277D34" cx="2507.5" cy="1401" rx="11.1" ry="10.9"/>
				</g>
			</g>
		</g>
		<g>
			<g>
				<g>
					<ellipse fill="#277D34" cx="2251" cy="1591.8" rx="10.6" ry="10.4"/>
				</g>
			</g>
		</g>
		<g>
			<g>
				<g>
					<ellipse fill="#277D34" cx="2343.9" cy="1763.9" rx="9.2" ry="9.1"/>
				</g>
			</g>
		</g>
		<g>
			<g>
				<g>
					<ellipse fill="#277D34" cx="2451.5" cy="1964.4" rx="8.8" ry="8.6"/>
				</g>
			</g>
		</g>
		<g>
			<g>
				<g>
					<ellipse fill="#277D34" cx="2494.1" cy="2132" rx="9.6" ry="9.4"/>
				</g>
			</g>
		</g>
		<g>
			<g>
				<g>
					<ellipse fill="#277D34" cx="2372" cy="2297.5" rx="8.6" ry="8.4"/>
				</g>
			</g>
		</g>
		<g>
			<g>
				<g>
					<ellipse fill="#277D34" cx="2357.1" cy="2505.2" rx="9.3" ry="9.2"/>
				</g>
			</g>
		</g>
		<g>
			<g>
				<g>
					<ellipse fill="#277D34" cx="2283.9" cy="2595.1" rx="10.8" ry="10.6"/>
				</g>
			</g>
		</g>
		<g>
			<g>
				<g>
					<ellipse fill="#277D34" cx="2079.7" cy="2551.3" rx="9.8" ry="9.6"/>
				</g>
			</g>
		</g>
		<g>
			<g>
				<g>
					<ellipse fill="#277D34" cx="2017.9" cy="2349.8" rx="8.8" ry="8.7"/>
				</g>
			</g>
		</g>
		<g>
			<g>
				<g>
					<ellipse fill="#277D34" cx="1920.6" cy="2168.9" rx="10.9" ry="10.8"/>
				</g>
			</g>
		</g>
		<g>
			<g>
				<g>
					<ellipse fill="#277D34" cx="2153.2" cy="1967.7" rx="8.6" ry="8.4"/>
				</g>
			</g>
		</g>
		<g>
			<g>
				<g>
					<ellipse fill="#277D34" cx="2026.5" cy="1796" rx="9.5" ry="9.3"/>
				</g>
			</g>
		</g>
		<g>
			<g>
				<g>
					<ellipse fill="#277D34" cx="2081.3" cy="1613.7" rx="9.2" ry="9.1"/>
				</g>
			</g>
		</g>
		<g>
			<g>
				<g>
					<ellipse fill="#277D34" cx="2048" cy="1433.4" rx="11.5" ry="11.3"/>
				</g>
			</g>
		</g>
		<g>
			<g>
				<g>
					<ellipse fill="#277D34" cx="1934.8" cy="1248.5" rx="9.2" ry="9"/>
				</g>
			</g>
		</g>
		<g>
			<g>
				<g>
					<ellipse fill="#277D34" cx="2047" cy="1044.1" rx="8.9" ry="8.8"/>
				</g>
			</g>
		</g>
		<g>
			<g>
				<g>
					<ellipse fill="#277D34" cx="2002.7" cy="860.1" rx="10.4" ry="10.2"/>
				</g>
			</g>
		</g>
		<g>
			<g>
				<g>
					<ellipse fill="#277D34" cx="1987.2" cy="696.3" rx="11.2" ry="11"/>
				</g>
			</g>
		</g>
		<g>
			<g>
				<g>
					<ellipse fill="#277D34" cx="2003.2" cy="516.5" rx="8.9" ry="8.8"/>
				</g>
			</g>
		</g>
		<g>
			<g>
				<g>
					<ellipse fill="#277D34" cx="641" cy="1362.7" rx="8.9" ry="8.8"/>
				</g>
			</g>
		</g>
		<g>
			<g>
				<g>
					<ellipse fill="#277D34" cx="596.6" cy="1178.7" rx="10.4" ry="10.2"/>
				</g>
			</g>
		</g>
		<g>
			<g>
				<g>
					<ellipse fill="#277D34" cx="581.2" cy="1014.9" rx="11.2" ry="11"/>
				</g>
			</g>
		</g>
		<g>
			<g>
				<g>
					<ellipse fill="#277D34" cx="597.1" cy="835.1" rx="8.9" ry="8.8"/>
				</g>
			</g>
		</g>
		<g>
			<g>
				<g>
					<ellipse fill="#277D34" cx="1975.7" cy="310.4" rx="11.2" ry="11"/>
				</g>
			</g>
		</g>
		<g>
			<g>
				<g>
					<ellipse fill="#277D34" cx="1897.1" cy="141.4" rx="9.8" ry="9.6"/>
				</g>
			</g>
		</g>
		<g>
			<g>
				<g>
					<ellipse fill="#277D34" cx="1741.8" cy="224.7" rx="7.8" ry="7.7"/>
				</g>
			</g>
		</g>
		<g>
			<g>
				<g>
					<ellipse fill="#277D34" cx="1607.8" cy="376.1" rx="9" ry="8.9"/>
				</g>
			</g>
		</g>
		<g>
			<g>
				<g>
					<ellipse fill="#277D34" cx="1647.1" cy="589.7" rx="7.7" ry="7.6"/>
				</g>
			</g>
		</g>
		<g>
			<g>
				<g>
					<ellipse fill="#277D34" cx="1665.8" cy="771" rx="10" ry="9.8"/>
				</g>
			</g>
		</g>
		<g>
			<g>
				<g>
					<ellipse fill="#277D34" cx="1585.1" cy="971.4" rx="11.8" ry="11.6"/>
				</g>
			</g>
		</g>
		<g>
			<g>
				<g>
					<ellipse fill="#277D34" cx="1555.1" cy="1143.4" rx="9.4" ry="9.3"/>
				</g>
			</g>
		</g>
		<g>
			<g>
				<g>
					<ellipse fill="#277D34" cx="1481.2" cy="1314.7" rx="12.2" ry="12"/>
				</g>
			</g>
		</g>
		<g>
			<g>
				<g>
					<ellipse fill="#277D34" cx="1639.2" cy="1516.1" rx="10.6" ry="10.4"/>
				</g>
			</g>
		</g>
		<g>
			<g>
				<g>
					<ellipse fill="#277D34" cx="1705.7" cy="1685.4" rx="7.7" ry="7.6"/>
				</g>
			</g>
		</g>
		<g>
			<g>
				<g>
					<ellipse fill="#277D34" cx="1688.8" cy="1863.4" rx="11.7" ry="11.5"/>
				</g>
			</g>
		</g>
		<g>
			<g>
				<g>
					<ellipse fill="#277D34" cx="1689" cy="2080.4" rx="11.8" ry="11.6"/>
				</g>
			</g>
		</g>
		<g>
			<g>
				<g>
					<ellipse fill="#277D34" cx="1623.5" cy="2281.9" rx="12" ry="11.8"/>
				</g>
			</g>
		</g>
		<g>
			<g>
				<g>
					<ellipse fill="#277D34" cx="1406.6" cy="2403.8" rx="10.6" ry="10.4"/>
				</g>
			</g>
		</g>
		<g>
			<g>
				<g>
					<ellipse fill="#277D34" cx="1426.9" cy="2584.6" rx="7.6" ry="7.5"/>
				</g>
			</g>
		</g>
		<g>
			<g>
				<g>
					<ellipse fill="#277D34" cx="1377.6" cy="2577.3" rx="9.6" ry="9.5"/>
				</g>
			</g>
		</g>
		<g>
			<g>
				<g>
					<ellipse fill="#277D34" cx="1248.5" cy="2503" rx="12.2" ry="12"/>
				</g>
			</g>
		</g>
		<g>
			<g>
				<g>
					<ellipse fill="#277D34" cx="1191" cy="2320.6" rx="11.5" ry="11.3"/>
				</g>
			</g>
		</g>
		<g>
			<g>
				<g>
					<ellipse fill="#277D34" cx="1261.3" cy="2123.9" rx="12.2" ry="12"/>
				</g>
			</g>
		</g>
		<g>
			<g>
				<g>
					<ellipse fill="#277D34" cx="1027.4" cy="1955.2" rx="8.4" ry="8.2"/>
				</g>
			</g>
		</g>
		<g>
			<g>
				<g>
					<ellipse fill="#277D34" cx="1137.3" cy="1736.7" rx="9.5" ry="9.3"/>
				</g>
			</g>
		</g>
		<g>
			<g>
				<g>
					<ellipse fill="#277D34" cx="1049.9" cy="1537.7" rx="8.8" ry="8.7"/>
				</g>
			</g>
		</g>
		<g>
			<g>
				<g>
					<ellipse fill="#277D34" cx="1176.5" cy="1368.6" rx="11.2" ry="11"/>
				</g>
			</g>
		</g>
		<g>
			<g>
				<g>
					<ellipse fill="#277D34" cx="1084.3" cy="1215.3" rx="10.2" ry="10.1"/>
				</g>
			</g>
		</g>
		<g>
			<g>
				<g>
					<ellipse fill="#277D34" cx="1208.3" cy="1022.9" rx="10.5" ry="10.3"/>
				</g>
			</g>
		</g>
		<g>
			<g>
				<g>
					<ellipse fill="#277D34" cx="1227.7" cy="837.2" rx="9.5" ry="9.3"/>
				</g>
			</g>
		</g>
		<g>
			<g>
				<g>
					<ellipse fill="#277D34" cx="1025.9" cy="673.8" rx="11.8" ry="11.6"/>
				</g>
			</g>
		</g>
		<g>
			<g>
				<g>
					<ellipse fill="#277D34" cx="1082.9" cy="471.5" rx="8.9" ry="8.8"/>
				</g>
			</g>
		</g>
		<g>
			<g>
				<g>
					<ellipse fill="#277D34" cx="996.8" cy="330.9" rx="9.5" ry="9.3"/>
				</g>
			</g>
		</g>
		<g>
			<g>
				<g>
					<ellipse fill="#277D34" cx="1032.3" cy="147.1" rx="8.8" ry="8.7"/>
				</g>
			</g>
		</g>
		<g>
			<g>
				<g>
					<ellipse fill="#277D34" cx="895.5" cy="122" rx="10.7" ry="10.5"/>
				</g>
			</g>
		</g>
		<g>
			<g>
				<g>
					<ellipse fill="#277D34" cx="828.6" cy="311.7" rx="8.5" ry="8.3"/>
				</g>
			</g>
		</g>
		<g>
			<g>
				<g>
					<ellipse fill="#277D34" cx="896.2" cy="523.9" rx="8.8" ry="8.7"/>
				</g>
			</g>
		</g>
		<g>
			<g>
				<g>
					<ellipse fill="#277D34" cx="786.3" cy="708.4" rx="7.5" ry="7.4"/>
				</g>
			</g>
		</g>
		<g>
			<g>
				<g>
					<ellipse fill="#277D34" cx="845.4" cy="904.4" rx="11.8" ry="11.7"/>
				</g>
			</g>
		</g>
		<g>
			<g>
				<g>
					<ellipse fill="#277D34" cx="778.4" cy="1090.3" rx="8.8" ry="8.6"/>
				</g>
			</g>
		</g>
		<g>
			<g>
				<g>
					<ellipse fill="#277D34" cx="856.7" cy="1295" rx="8.1" ry="8"/>
				</g>
			</g>
		</g>
		<g>
			<g>
				<g>
					<ellipse fill="#277D34" cx="829.2" cy="1453.8" rx="11.9" ry="11.7"/>
				</g>
			</g>
		</g>
		<g>
			<g>
				<g>
					<ellipse fill="#277D34" cx="748" cy="1638.1" rx="9.3" ry="9.1"/>
				</g>
			</g>
		</g>
		<g>
			<g>
				<g>
					<ellipse fill="#277D34" cx="867.7" cy="1824.6" rx="11" ry="10.8"/>
				</g>
			</g>
		</g>
		<g>
			<g>
				<g>
					<ellipse fill="#277D34" cx="765.6" cy="2003" rx="12.1" ry="11.9"/>
				</g>
			</g>
		</g>
		<g>
			<g>
				<g>
					<ellipse fill="#277D34" cx="774.5" cy="2207.8" rx="11.8" ry="11.6"/>
				</g>
			</g>
		</g>
		<g>
			<g>
				<g>
					<ellipse fill="#277D34" cx="688" cy="2387.3" rx="11.2" ry="11.1"/>
				</g>
			</g>
		</g>
		<g>
			<g>
				<g>
					<ellipse fill="#277D34" cx="811.8" cy="2546.6" rx="8.2" ry="8.1"/>
				</g>
			</g>
		</g>
		<g>
			<g>
				<g>
					<ellipse fill="#277D34" cx="720.6" cy="2550.9" rx="11.7" ry="11.5"/>
				</g>
			</g>
		</g>
		<g>
			<g>
				<g>
					<ellipse fill="#277D34" cx="496.2" cy="2457.1" rx="8.3" ry="8.2"/>
				</g>
			</g>
		</g>
		<g>
			<g>
				<g>
					<ellipse fill="#277D34" cx="640.8" cy="2241.4" rx="10.1" ry="9.9"/>
				</g>
			</g>
		</g>
		<g>
			<g>
				<g>
					<ellipse fill="#277D34" cx="447.6" cy="2076.9" rx="8" ry="7.8"/>
				</g>
			</g>
		</g>
		<g>
			<g>
				<g>
					<ellipse fill="#277D34" cx="485.8" cy="1877.5" rx="10.3" ry="10.2"/>
				</g>
			</g>
		</g>
		<g>
			<g>
				<g>
					<ellipse fill="#277D34" cx="577.2" cy="1661.5" rx="9.3" ry="9.2"/>
				</g>
			</g>
		</g>
		<g>
			<g>
				<g>
					<ellipse fill="#277D34" cx="429.6" cy="1475.2" rx="8" ry="7.9"/>
				</g>
			</g>
		</g>
		<g>
			<g>
				<g>
					<ellipse fill="#277D34" cx="386.5" cy="1293.6" rx="9" ry="8.8"/>
				</g>
			</g>
		</g>
		<g>
			<g>
				<g>
					<ellipse fill="#277D34" cx="271.2" cy="1130.4" rx="9.7" ry="9.6"/>
				</g>
			</g>
		</g>
		<g>
			<g>
				<g>
					<ellipse fill="#277D34" cx="430.3" cy="931" rx="8.2" ry="8.1"/>
				</g>
			</g>
		</g>
		<g>
			<g>
				<g>
					<ellipse fill="#277D34" cx="425.1" cy="753.4" rx="10.1" ry="9.9"/>
				</g>
			</g>
		</g>
		<g>
			<g>
				<g>
					<ellipse fill="#277D34" cx="183.7" cy="598.3" rx="8.1" ry="8"/>
				</g>
			</g>
		</g>
		<g>
			<g>
				<g>
					<ellipse fill="#277D34" cx="170.2" cy="432.7" rx="12.1" ry="11.9"/>
				</g>
			</g>
		</g>
		<g>
			<g>
				<g>
					<ellipse fill="#277D34" cx="184" cy="315.7" rx="10.8" ry="10.6"/>
				</g>
			</g>
		</g>
		<g>
			<g>
				<g>
					<ellipse fill="#277D34" cx="117.5" cy="497.2" rx="9.6" ry="9.4"/>
				</g>
			</g>
		</g>
		<g>
			<g>
				<g>
					<ellipse fill="#277D34" cx="242.9" cy="695.3" rx="8.2" ry="8.1"/>
				</g>
			</g>
		</g>
		<g>
			<g>
				<g>
					<ellipse fill="#277D34" cx="46.1" cy="900.4" rx="12.1" ry="11.9"/>
				</g>
			</g>
		</g>
		<g>
			<g>
				<g>
					<ellipse fill="#277D34" cx="121.1" cy="1057" rx="7.7" ry="7.5"/>
				</g>
			</g>
		</g>
		<g>
			<g>
				<g>
					<ellipse fill="#277D34" cx="206.9" cy="1230.1" rx="10.3" ry="10.1"/>
				</g>
			</g>
		</g>
		<g>
			<g>
				<g>
					<ellipse fill="#277D34" cx="253.2" cy="1438" rx="8.2" ry="8.1"/>
				</g>
			</g>
		</g>
		<g>
			<g>
				<g>
					<ellipse fill="#277D34" cx="222.5" cy="1626.9" rx="11.4" ry="11.2"/>
				</g>
			</g>
		</g>
		<g>
			<g>
				<g>
					<ellipse fill="#277D34" cx="125.1" cy="1790.1" rx="11.3" ry="11.1"/>
				</g>
			</g>
		</g>
		<g>
			<g>
				<g>
					<ellipse fill="#277D34" cx="235.9" cy="1987" rx="7.4" ry="7.3"/>
				</g>
			</g>
		</g>
		<g>
			<g>
				<g>
					<ellipse fill="#277D34" cx="192.5" cy="2192.7" rx="8.9" ry="8.7"/>
				</g>
			</g>
		</g>
		<g>
			<g>
				<g>
					<ellipse fill="#277D34" cx="162.4" cy="2388.1" rx="10.9" ry="10.7"/>
				</g>
			</g>
		</g>
		<g>
			<g>
				<g>
					<ellipse fill="#277D34" cx="225.4" cy="2581.1" rx="10.3" ry="10.1"/>
				</g>
			</g>
		</g>
		<g>
			<g>
				<g>
					<ellipse fill="#277D34" cx="165.5" cy="2762.1" rx="8.5" ry="8.4"/>
				</g>
			</g>
		</g>
	</g>
</g>
<g id="OBJECTS">
	<ellipse opacity="0.3" fill="#9ED162" cx="2009.2" cy="2630.7" rx="437.6" ry="61.9"/>
	<polygon opacity="0.3" fill="#9ED162" points="1789.3,2510.9 202.2,2538.8 151.2,261.3 1701.4,226.6 	"/>
	
		<rect x="154.1" y="215.8" transform="matrix(0.9998 -2.235915e-02 2.235915e-02 0.9998 -30.0603 21.1198)" fill="#D8EBF5" width="1550.6" height="2278.1"/>
	<path fill="#A9C5D6" d="M1693.2,840L1592,1012.7l-252.7-112.5c0,0,0,3.2,0,8.8c-11-6.1-26.4-13.4-46.5-20.1
		c-39.2-13.1-135-58-166.6-73c-4.8-2.3-10.1,1.8-9.3,7c1.3,8,4.1,17.9,10.4,23c3.1,2.5,11.4,6.7,21.9,11.5c-0.2,0.3-0.3,0.4-0.3,0.4
		s0.4,0,1-0.2c11.5,5.3,25.4,11.2,38.1,16.5c-0.2,0.1-0.4,0.2-0.6,0.3c-0.6,0.3-0.9,0.5-0.9,0.5s0.1,0.1,0.3,0.2
		c0.2,0.1,0.6,0.2,1,0.3c0.4,0.1,1,0.2,1.6,0.2c0.3,0,0.6,0,1,0c0.3,0,0.7-0.1,1-0.1c0,0,0,0,0.1,0c17.6,7.3,31.9,12.9,31.9,12.9
		s-15,5.5-19.5,14.6c-4.5,9.1-0.3,30.7-0.3,30.7s-0.4,0.4-1,1.2c-0.1,0-0.1,0.1-0.1,0.1l0,0c0,0,0,0,0.1,0
		c-2.4,3.1-8.3,11.5-7.7,18.5c0.8,8.8,6,9.5,6,9.5s-16.9,8.5-7.8,19.7c9.1,11.2,51.7,25.6,87.6,34.6c11.2,2.8,22.1,5.3,31.7,7.4
		c6.4,1.4,10,8.3,7.3,14.3c0,0,0,0.1,0,0.1l293.6,166.8c9.4,5.3,21,4.4,29.4-2.3l56.8-45L1693.2,840z"/>
	<g>
		<path fill="#7A95A3" d="M1966.5,2504.7l-82.1,5.9c-25.1,29.6-111.6,76.1-153.8,68c-42.1-8.1-48.1,18.5-48.1,18.5
			s17,20.7,65.8,23.7c48.8,3,148.6,0,148.6,0s25.9-39.2,28.8-34c3,5.2,7.4,35.3,7.4,35.3l53.2-4.3
			C1986.4,2617.8,1987.9,2552.8,1966.5,2504.7z"/>
		<path fill="#4A5B63" d="M1933.2,2622.1l53.2-4.3c0,0,0.2-9.5-0.7-23.9c-19.5,2.6-38.3,4.6-56.3,6.3
			C1931.5,2610.3,1933.2,2622.1,1933.2,2622.1z"/>
		<path fill="#4A5B63" d="M1748.4,2620.8c48.8,3,148.6,0,148.6,0s6.5-9.8,13.3-19c-108.7,8.3-186.1-0.1-220.8-15.8
			c-5.6,5.4-6.9,11.1-6.9,11.1S1699.6,2617.8,1748.4,2620.8z"/>
		<path fill="#7A95A3" d="M2116.7,2504.7l82.1,5.9c25.1,29.6,111.6,76.1,153.8,68c42.1-8.1,48.1,18.5,48.1,18.5s-17,20.7-65.8,23.7
			s-148.6,0-148.6,0s-25.9-39.2-28.8-34c-3,5.2-7.4,35.3-7.4,35.3l-53.2-4.3C2096.7,2617.8,2095.2,2552.8,2116.7,2504.7z"/>
		<path fill="#4A5B63" d="M2149.9,2622.1l-53.2-4.3c0,0-0.2-9.5,0.7-23.9c19.5,2.6,38.3,4.6,56.3,6.3
			C2151.7,2610.3,2149.9,2622.1,2149.9,2622.1z"/>
		<path fill="#4A5B63" d="M2334.8,2620.8c-48.8,3-148.6,0-148.6,0s-6.5-9.8-13.3-19c108.7,8.3,186.1-0.1,220.8-15.8
			c5.6,5.4,6.9,11.1,6.9,11.1S2383.6,2617.8,2334.8,2620.8z"/>
		<path fill="#4A5B63" d="M2061.8,1947.7l29.8,567.6c0,0,52.3,42.3,130.3-13.2l64.3-554.3H2061.8z"/>
		<polygon fill="#303B40" points="2286.3,1947.7 2061.8,1947.7 2066.2,2030.6 2279.2,2008.8 		"/>
		<path fill="#4A5B63" d="M1826.9,1874.9l22.5,640.3c0,0,41.8,39.7,129.8,0l82.7-603.3L1826.9,1874.9z"/>
		<polygon fill="#303B40" points="2061.8,1912 1826.9,1874.9 1831.6,2009.8 1882.7,2020.4 1883.2,2020.5 2047.8,2014.3 		"/>
		<g>
			<path fill="#FFAD75" d="M1381.2,916.5c0,0-21-18.7-68.4-34.6c-39.2-13.1-135-58-166.6-73c-4.8-2.3-10.1,1.7-9.3,7
				c1.3,8,4.1,17.9,10.4,23c3.1,2.5,11.4,6.7,21.9,11.5c-0.2,0.3-0.3,0.4-0.3,0.4s0.4,0,1-0.2c11.5,5.3,25.4,11.2,38.1,16.5
				c-0.2,0.1-0.4,0.2-0.6,0.3c-0.6,0.3-0.9,0.5-0.9,0.5s0.1,0.1,0.3,0.2c0.2,0.1,0.6,0.2,1,0.3c0.4,0.1,1,0.2,1.6,0.2
				c0.3,0,0.6,0,1,0c0.3,0,0.7-0.1,1-0.1c0,0,0,0,0.1,0c17.6,7.3,31.9,12.9,31.9,12.9s-15,5.5-19.5,14.6c-4.5,9.1-0.3,30.7-0.3,30.7
				s-0.4,0.4-1,1.2c-0.1,0-0.1,0.1-0.1,0.1l0,0c0,0,0,0,0.1,0c-2.4,3.1-8.3,11.5-7.7,18.5c0.8,8.8,6,9.5,6,9.5s-16.9,8.5-7.8,19.7
				c9.1,11.2,51.7,25.6,87.6,34.6c35.8,8.9,68,15,68,15S1405,940.1,1381.2,916.5z"/>
			<path fill="#FFAD75" d="M1179.5,830.2c0.2,0.3,0.4,0.8,0.6,1.3C1179.9,830.9,1179.7,830.5,1179.5,830.2c-0.4-0.7-0.6-1-0.6-1l0,0
				C1178.9,829.1,1179.1,829.5,1179.5,830.2z"/>
			<path fill="#FFAD75" d="M1241.1,974.6c0,0-0.1,0-0.1,0C1241.1,974.6,1241.1,974.6,1241.1,974.6z"/>
			<path fill="#C28258" d="M1349.1,989.7c-1.8-2.5-4.5-6-8.3-9.9c-3.7-3.8-8.5-7.9-14.3-11.3c-5.7-3.4-12.5-6.1-19.6-7.1
				c-3.6-0.5-7.2-0.6-10.7-0.2c-3.5,0.3-6.9,1.2-10.1,2.2c-6.4,2.1-12,4.8-16.9,6.6c-2.5,0.9-4.8,1.7-6.9,2.3
				c-1.4,0.4-2.6,0.6-3.7,0.8c2.4-0.9,4.7-2,7.1-3.4c3.3-1.8,6.5-4,9.4-6.7c0.8-0.6,1.4-1.3,2.2-2c0.7-0.7,1.4-1.4,2.1-2.2
				c0.7-0.8,1.3-1.7,1.6-2.7c0.4-1,0.5-2.2,0.2-3.2c-0.3-1.1-1.1-2.1-2.1-2.6c-1-0.5-2-0.7-3-0.9c-1-0.2-2.1-0.3-3.1-0.4
				c0.5-0.2,1.1-0.5,1.6-0.8c1.9-1,4.1-2.2,6.2-3.9c2.1-1.6,4.3-3.6,6.2-6c1-1.2,2-2.5,2.8-3.8c0.9-1.4,1.7-2.8,2.2-4.5
				c0.5-1.7,0.5-3.6-0.4-5.2c-0.9-1.6-2.4-2.8-4-3.6c-1.6-0.8-3.3-1.3-5.1-1.7l-2.6-0.7l-1.8-0.4c0,0,0.1,0,0.1,0
				c1-0.5,2.1-1.3,3.1-2.3c0.3-0.3,0.6-0.6,0.9-0.9c3,3.9,6.7,6.8,10.5,9.1c2.1,1.3,4.3,2.4,6.5,3.3c1.1,0.5,2.2,0.9,3.3,1.3
				c1,0.4,2.2,0.8,3.2,1.1c4.3,1.4,8.5,2.3,12.6,2.9c2,0.3,4,0.6,5.9,0.7c1.9,0.1,3.8,0.1,5.6,0.1c3.6-0.1,6.9-0.6,9.8-1.5
				c2.9-0.8,5.2-2,7-3.1c1.8-1.1,2.9-2.4,3.6-3.2c0.7-0.8,1-1.3,1-1.3s-0.4,0.4-1.2,1.1c-0.8,0.7-2.1,1.6-3.9,2.5
				c-1.8,0.9-4.1,1.6-6.8,2.1c-2.7,0.4-5.9,0.6-9.3,0.4c-6.8-0.3-14.7-2-22.7-4.9c-4-1.5-8.1-3.3-11.8-5.6c-3.8-2.4-7.3-5.3-9.8-9.1
				c-2.6-3.7-4.1-8-5.1-12.4c-0.3-1.1-0.5-2.1-0.8-3.3c-0.4-1.2-1.4-2.2-2.7-2.4c-1.2-0.3-2.5,0.1-3.4,0.9c-0.2,0.2-0.4,0.5-0.6,0.7
				l-0.1,0.2l-0.1,0.2l-0.2,0.4l-0.8,1.4c-2.2,3.7-4.7,7-7.4,9.7c-1.4,1.4-2.8,2.7-4.3,3.7c-1.5,1.1-3,2-4.5,2.8
				c-6,3.2-11.6,4.8-15.6,5c-2,0.2-3.5-0.2-4.6-0.4c-1-0.4-1.5-0.5-1.5-0.6c0-0.1,0.6-0.8,1.6-2.1c1-1.4,2.4-3.3,4-5.8
				c1.5-2.5,3.3-5.4,5.1-8.5c1.8-3.1,3.8-6.5,5.8-9.7c2-3.3,4-6.6,6.1-9.5c1-1.5,2-2.9,3-4.3c1-1.3,1.9-2.6,2.7-3.8
				c0.8-1.2,1.6-2.3,2.4-3.1c0.8-0.9,1.6-1.5,2.3-2c0.7-0.4,1.3-0.7,1.7-0.9c0.4-0.1,0.7-0.2,0.7-0.2l0,0c0,0-0.3,0-0.7-0.1
				c-0.5,0-1.3,0-2.2,0.3c-0.9,0.2-2.1,0.7-3.2,1.5c-1.1,0.7-2.3,1.7-3.4,2.8c-0.5,0.5-1.1,1-1.7,1.6c-0.3,0.3-0.5,0.5-0.8,0.8
				c-0.3,0.3-0.6,0.6-0.9,0.9c-1.2,1.2-2.5,2.5-3.7,3.9c-1.2,1.4-2.4,2.9-3.5,4.5c-1.2,1.6-2.2,3.3-3.3,4.9
				c-0.2,0.3-0.3,0.5-0.4,0.8c-0.6,0.1-1.3,0.2-1.9,0.3c-1,0.2-1.9,0.4-2.9,0.6c-0.9,0.2-1.8,0.5-2.7,0.8c-0.9,0.2-1.7,0.5-2.5,0.8
				c-0.8,0.3-1.6,0.6-2.3,0.9c-1.5,0.7-2.8,1.2-3.9,1.9c-1.1,0.6-2.2,1.1-2.9,1.7c-1.6,1-2.5,1.6-2.5,1.6l0,0c0,0,0.3-0.1,0.8-0.2
				c0.5-0.1,1.3-0.3,2.2-0.5c0.9-0.3,2.1-0.4,3.3-0.8c0.6-0.2,1.3-0.3,2-0.4c0.7-0.1,1.4-0.3,2.2-0.5c0.8-0.2,1.6-0.2,2.4-0.4
				c0.8-0.1,1.6-0.3,2.5-0.4c0.9-0.1,1.7-0.2,2.6-0.3c0.4,0,0.7-0.1,1.1-0.1c-0.8,1.5-1.4,3-2.1,4.4c-0.8,1.6-1.4,3.3-2,4.8
				c-0.7,1.5-1.2,3-1.7,4.4c-0.5,1.4-0.9,2.6-1.3,3.8c-0.4,1.1-0.7,2.2-0.9,3c-0.3,0.8-0.4,1.5-0.6,2c-0.1,0.5-0.2,0.7-0.2,0.7l0,0
				c0,0,0.5,0.3,1.4,0.8c1,0.4,2.6,1.1,4.7,1.2c1.8,0.1,4,0.1,6.4-0.3c-1.4,0.3-2.7,0.6-4,0.9c-0.7,0.2-1.4,0.4-2.1,0.5
				c-0.7,0.2-1.3,0.4-2,0.6c-1.3,0.4-2.5,0.8-3.6,1.2c-1.1,0.4-2.2,0.8-3.2,1.3c-2,0.8-3.7,1.7-5.1,2.4c-1.4,0.7-2.4,1.3-3.2,1.7
				c-0.5,0.3-0.8,0.5-1,0.5c-0.1,0-0.1,0.1-0.1,0.1l0,0c0,0,0,0,0.1,0c0.3-0.1,1.9-0.6,4.7-1.4c1.5-0.4,3.3-0.9,5.4-1.4
				c1-0.3,2.1-0.5,3.3-0.7c0.6-0.1,1.2-0.3,1.8-0.4c0.6-0.1,1.2-0.2,1.9-0.3c0.6-0.1,1.3-0.2,1.9-0.4c0.7-0.1,1.3-0.2,2-0.3
				c0.7-0.1,1.4-0.2,2.1-0.3c0.7-0.1,1.4-0.2,2.2-0.2c2.9-0.3,6-0.4,9.2-0.6c3.2-0.1,6.4,0.1,9.7,0.3c1.7,0.1,3.3,0.3,5,0.5
				c1.6,0.3,3.3,0.5,4.9,0.9l2.5,0.4l2.4,0.6l1.2,0.3l1.1,0.3c0.7,0.2,1.3,0.4,1.9,0.7c1.1,0.5,1.8,1,2,1.3l0.1,0.1l0,0.1l0,0l0,0
				c0,0-0.1-0.3,0-0.2l0,0.1c0.2,0.7,0.1,0.2,0.1,0.4c0.1,0.2,0.1,0.6,0,1.1c-0.2,0.9-0.8,2.2-1.4,3.4c-0.8,1.5-1.4,2.5-2.2,3.7
				c-1.6,2.3-3.3,4.3-5.1,6.1c-1.8,1.7-3.6,3.3-5.3,4.5c-1.2,0.8-2.3,1.6-3.4,2.2c-0.1,0-0.1,0-0.2,0c-3.9-0.4-7.8-0.6-11.5-0.5
				c-3.7,0.1-7.4,0.3-10.8,0.8c-3.4,0.4-6.6,1-9.5,1.7c-2.9,0.6-5.6,1.4-7.9,2.2c-2.3,0.8-4.3,1.5-5.9,2.1c-1.6,0.6-2.9,1.2-3.7,1.6
				c-0.9,0.4-1.3,0.6-1.3,0.6l0,0c0,0,0.5-0.1,1.4-0.3c0.9-0.2,2.3-0.5,4-0.9c1.7-0.4,3.8-0.7,6.1-1.2c1.2-0.2,2.4-0.4,3.8-0.6
				c1.3-0.2,2.7-0.4,4.2-0.6c2.9-0.3,6-0.5,9.3-0.7c3.3-0.2,6.8-0.1,10.4,0c3.6,0.1,7.2,0.5,10.9,0.9c1.8,0.2,3.7,0.5,5.5,0.8
				c0.3,0,0.5,0.1,0.7,0.1c-0.1,0.2-0.3,0.5-0.5,0.8c-0.2,0.3-0.5,0.6-0.8,0.9l-0.9,0.9c-0.7,0.7-1.4,1.5-2,2
				c-0.6,0.6-1.3,1.1-1.9,1.7c-0.7,0.6-1.4,1.1-2,1.7c-1.4,1.1-2.8,2.1-4.3,3c-2.9,1.8-5.9,3.5-8.9,4.7c-3,1.2-5.9,2.3-8.6,3
				c-0.7,0.2-1.4,0.3-2,0.5c-0.7,0.1-1.3,0.3-2,0.4c-1.3,0.3-2.5,0.5-3.7,0.6c-1.2,0.2-2.3,0.2-3.3,0.3c-1,0.1-2,0.1-2.8,0.1
				c-0.9,0-1.6,0.3-2.3,0.3c-0.7,0-1.3,0.1-1.7,0.1c-0.9,0-1.5,0-1.5,0s0.5,0,1.4,0.1c0.9,0.2,2.3,0.5,4,0.7
				c0.9,0.1,1.8,0.1,2.9,0.2c1.1,0.1,2.2,0.1,3.4,0.1c1.2,0,2.5,0,3.9-0.1c0.7,0,1.4-0.1,2.1-0.2c0.7-0.1,1.4-0.2,2.2-0.3
				c1.5-0.2,3-0.6,4.6-0.9c1.4-0.4,2.8-0.7,4.3-1.2c0.5,0.1,1.1,0.1,1.7,0.1c1.6,0.1,3.6,0.1,5.8-0.2c2.2-0.3,4.8-0.7,7.4-1.4
				c1.3-0.3,2.7-0.7,4.1-1.1c1.4-0.4,2.8-0.9,4.3-1.3c2.9-0.9,5.9-1.8,8.9-2.6c1.5-0.4,3-0.7,4.6-1l1.1-0.2l0.6-0.1l0.3,0l0,0
				c-0.2,0,0,0-0.1,0l0.1,0l0.2,0l1.3-0.2l0.6-0.1l0.5,0c1.4-0.1,3.1-0.1,4.6-0.1c1.6,0.1,3.2,0.2,4.7,0.5c3.2,0.4,6.3,1.2,9.3,2.2
				c3,1.1,6,2.2,8.7,3.7l0.5,0.3l0.1,0.1l0.1,0l0.3,0.2l1.1,0.6c0.7,0.4,1.3,0.8,2,1.1c1.3,0.7,2.6,1.6,3.8,2.4
				c2.4,1.7,4.6,3.3,6.7,4.9c2,1.6,3.8,3.2,5.4,4.6c1.6,1.4,3,2.7,4.1,3.8c1.1,1.1,2.1,1.9,2.7,2.5c0.6,0.6,0.9,0.9,0.9,0.9
				S1351,992.2,1349.1,989.7z M1276.7,955C1276.7,955,1276.7,955,1276.7,955C1276.7,955,1276.7,955,1276.7,955z M1277.1,897.3
				C1277.1,897.3,1277.1,897.3,1277.1,897.3C1277.2,897.1,1277.2,897.1,1277.1,897.3z M1276.8,915.9c-0.2,0.5-0.4,1-0.7,1.4
				c-0.1,0.3-0.3,0.5-0.4,0.8c-1.2-0.2-2.4-0.3-3.6-0.5c-1.8-0.1-3.5-0.4-5.3-0.4c-3.5-0.2-7-0.1-10.3,0.2c-2.5,0.2-5,0.5-7.4,0.9
				c2.5-0.6,5.2-1.4,8-2.6c1.7-0.7,3.4-1.6,5.1-2.6c0.9-0.5,1.8-1.2,2.5-1.8c0.8-0.7,1.7-1.3,2.4-2c3.1-2.7,5.9-6,8.3-9.7
				c0,0.1,0.1,0.3,0.1,0.4c0.8,3.5,1.9,7.2,3.7,10.8c-0.2,0.2-0.3,0.5-0.4,0.8c-0.3,0.5-0.5,1-0.8,1.5
				C1277.7,913.9,1277.3,914.9,1276.8,915.9z M1276.2,954.3C1276.2,954.2,1276.2,954.2,1276.2,954.3L1276.2,954.3z M1220.6,859.7
				c-0.2,0.9-0.7,1.8-1.1,2.7c-0.5,0.8-1,1.7-1.7,2.3c-0.6,0.7-1.3,1.3-2.1,1.9c-0.8,0.5-1.5,1-2.3,1.3c-0.8,0.3-1.5,0.5-2.2,0.6
				c0,0,0,0-0.1,0c-0.4,0-0.7,0.1-1,0.1c-0.3,0-0.7,0-1,0c-0.6,0-1.1-0.1-1.6-0.2c-0.4-0.1-0.8-0.3-1-0.3c-0.2-0.1-0.3-0.2-0.3-0.2
				s0.3-0.2,0.9-0.5c0.2-0.1,0.4-0.2,0.6-0.3c0.1-0.1,0.3-0.2,0.4-0.3c0.4-0.2,0.8-0.5,1.3-0.9c0.5-0.3,0.9-0.7,1.4-1.1
				c0.5-0.4,0.9-0.9,1.4-1.4c0.4-0.5,0.9-1.1,1.3-1.7c0.4-0.6,0.8-1.2,1.1-1.9c0.3-0.7,0.7-1.3,0.9-2c0.3-0.7,0.5-1.4,0.7-2
				c0.1-0.7,0.3-1.3,0.4-2c0.1-0.6,0.2-1.2,0.2-1.8c0-0.6,0-1.1,0-1.5c0-0.5,0-0.9-0.1-1.2c-0.1-0.7-0.1-1-0.1-1l0,0
				c0,0,0.1,0.1,0.3,0.2c0.2,0.1,0.5,0.3,0.8,0.6c0.3,0.2,0.7,0.6,1.1,1.1c0.2,0.3,0.4,0.5,0.6,0.8c0.2,0.3,0.3,0.6,0.5,0.9
				c0.3,0.7,0.5,1.4,0.7,2.3c0.2,0.8,0.2,1.7,0.2,2.6C1221,857.9,1220.9,858.8,1220.6,859.7z M1180.7,833.1c0.3,1.3,0.6,2.9,0.4,4.5
				c-0.1,1.7-0.5,3.5-1.3,5.1c-0.8,1.6-1.9,3.1-3.1,4.3c-1.2,1.2-2.6,2-3.7,2.6c-1.2,0.6-2.3,0.8-3,1c-0.1,0-0.2,0-0.2,0
				c-0.6,0.1-1,0.2-1,0.2s0.1-0.2,0.3-0.4c0.2-0.2,0.3-0.4,0.6-0.8c0.3-0.3,0.6-0.8,0.9-1.2c0.3-0.4,0.6-0.9,1-1.5
				c0.7-1,1.3-2.1,1.9-3.2c0.3-0.5,0.6-1.1,0.8-1.6l0.3-0.7c0.1-0.1,0.1-0.1,0.2-0.4l0.1-0.3l0.1-0.1l0-0.1l0,0l0,0l0,0
				c0,0,0-0.1-0.1,0.1c0.3-0.5,0.5-1.1,0.7-1.6c0.2-0.6,0.5-1.1,0.7-1.7c0.4-1.1,0.9-2.3,1.2-3.5c0.2-0.6,0.3-1.2,0.5-1.7
				c0.1-0.5,0.3-1,0.4-1.5c0.1-0.5,0.2-0.8,0.2-1.1c0.1-0.3,0.1-0.4,0.1-0.4l0,0c0,0,0.2,0.4,0.6,1c0.2,0.3,0.4,0.8,0.6,1.3
				C1180.3,831.9,1180.5,832.5,1180.7,833.1z"/>
		</g>
		<path fill="#E6E6E6" d="M1807.8,792.7l-38.4-55.6L1612,1005.7l-252.7-112.5c0,0,1.3,91.3-19.8,138.9l289.7,148.2l166.7-142.7
			C1795.9,1037.6,1856.8,938.2,1807.8,792.7z"/>
		<path fill="#FFAD75" d="M2014.8,247c-28,19.6-43.8,51.9-58.1,83c-13.2,28.7-26.1,57.8-32.9,88.7c-6.8,30.8-7.3,63.9,4.1,93.3
			c9.7,25,27.2,46.1,39.6,70c15.3,29.5,22.5,63.1,20.6,96.3c58.2,0.9,116.5,1.9,174.7,2.8c-11.5-58.1,10.1-117.6,37.7-170
			c27.6-52.4,61.9-102,78.8-158.8c7.3-24.5,11.1-52-0.2-75c-11.1-22.5-34.5-36.4-58.3-44.3c-36-11.9-74.8-12.9-112.7-10.9
			C2075.5,223.9,2041.5,228.3,2014.8,247z"/>
		<path fill="#7A95A3" d="M2190.1,467.2c12.6,1.8,25.2,3.7,37.8,5.5c8.7-28.2,25.2-53.3,40.5-78.6c15.3-25.3,29.9-51.8,34.3-81
			c4.4-29.2-3.4-61.9-26.3-80.5c-14.9-12.1-34.3-17-53.1-20.5c-42.3-8-85.6-10.9-128.5-7.8c-33.3,2.4-69.4,10.2-90.2,36.3
			c-7,8.8-11.8,21.4-5.9,30.9c4.6,7.5,14.1,10.4,22.8,11.8c46.3,7.8,93.7-5.1,140.5-0.9c15.5,1.4,32,5.3,42.1,17.2
			c12.5,14.7,11.1,36.8,5.1,55.2s-16.1,35.5-18.9,54.7c10.3-1.7,20.6-3.5,30.9-5.2C2210.7,425.3,2200.4,446.3,2190.1,467.2z"/>
		<g>
			<path fill="#4F626B" d="M2026.4,230.3c5.9,1.1,11.9,1.6,17.8,1.6c18,0,36.1-4.7,52.6-11.8c11-4.8,21.5-10.6,31.6-16.9
				c-1.7,0-3.4,0-5.1,0c-8.9,5.4-18,10.3-27.5,14.4c-16.3,7-34,11.6-51.6,11.6c-5.8,0-11.6-0.5-17.4-1.6c-2.2-0.4-4.4-1-6.5-1.8
				c-0.8,0.6-1.7,1.2-2.5,1.8C2020.6,229,2023.6,229.7,2026.4,230.3z"/>
			<path fill="#4F626B" d="M2025,247.9c9.1,0.8,18.2,1.2,27.3,1.2c53.4,0,106.7-14,153.4-40c-1.4-0.2-2.9-0.4-4.3-0.6
				c-45.5,24.7-97.3,38-149.1,38c-9,0-18.1-0.4-27.1-1.2c-7.2-0.6-14.5-1.7-20.5-4.9c-0.1,0.1-0.2,0.2-0.2,0.3
				c-0.5,0.6-0.9,1.2-1.4,1.8C2009.8,246.2,2017.6,247.3,2025,247.9z"/>
			<path fill="#4F626B" d="M2053.8,265.4c66.4,0,131.7-19.7,192.9-47.6c-1.3-0.4-2.6-0.8-3.9-1.1c-60.2,27.1-124.1,46.1-189,46.1
				c-8.7,0-17.4-0.3-26.1-1c-10.6-0.9-21.4-2.4-30.6-7.1c-0.3,0.9-0.5,1.8-0.6,2.6c9.7,4.8,20.5,6.2,31.1,7.1
				C2036.3,265,2045,265.4,2053.8,265.4z"/>
			<path fill="#4F626B" d="M2231.3,250.4c5.7-2.5,11.3-5.1,17.1-5.9c1.1-0.2,2.2-0.2,3.4-0.2c4.8,0,9.5,1.4,12.7,4.7
				c2.9,2.9,4.2,7,4.2,11.3c0,2.5-0.4,5-1.3,7.3c-2.3,6.4-7,11.8-12.1,16.7c-12.8,12.5-27.4,23-43.3,31.3c0.2,0.9,0.4,1.8,0.6,2.7
				c16.3-8.4,31.5-19.2,44.6-32c5.1-5,10.2-10.7,12.8-17.7c0.9-2.6,1.4-5.4,1.4-8.2c0-4.8-1.5-9.7-5-13.2c-3.8-3.9-9.3-5.5-14.6-5.5
				c-1.2,0-2.5,0.1-3.7,0.3c-6.4,0.9-12.2,3.6-17.8,6.1c-52.5,23.3-109.9,35.7-167.3,36.1c-1,0-2,0-3,0c-17.1,0-34.3-1.2-50.5-6.4
				c-3-1-6-2.1-8.9-3.4c2.8,3.2,6.7,5.3,10.9,6.7c3.1,0.9,6.3,1.7,9.4,2.3c0.2,0,0.3,0.1,0.5,0.1c32.6,5.5,65.8,0.7,99-1.1
				C2158.5,276.8,2196,266.1,2231.3,250.4z"/>
			<path fill="#4F626B" d="M2235.1,273.1c0.3-0.1,0.6-0.2,0.9-0.2c0.6,0,1.2,0.3,1.6,0.7c0.4,0.4,0.7,1.1,0.7,1.6
				c0,0.4-0.1,0.8-0.4,1.3c-7.7,11.5-18.5,21-30.9,27.4c0.5,0.8,0.9,1.5,1.3,2.3c12.7-6.6,23.8-16.4,31.8-28.3
				c0.6-0.9,0.9-1.8,0.9-2.8c0-1.3-0.6-2.6-1.4-3.5c-0.9-0.9-2.1-1.5-3.5-1.5c-0.6,0-1.3,0.1-2,0.4c-16.3,6.9-33.2,12.3-50.4,16.2
				c1.5,0.5,3,1.1,4.4,1.7C2204.2,284.7,2219.9,279.5,2235.1,273.1z"/>
			<path fill="#4F626B" d="M2295,274.1c-4.1,10.8-12.2,19.7-20.7,27.9c-18.9,18.3-40.3,34-63.4,46.7c-0.3,1.2-0.6,2.4-1,3.5
				c24.2-13,46.5-29.3,66.3-48.3c8.6-8.3,16.9-17.4,21.3-28.8c0.9-2.3,1.6-4.7,2-7.1c-0.6-1.9-1.2-3.8-2-5.6
				C2297.3,266.4,2296.4,270.4,2295,274.1z"/>
			<path fill="#4F626B" d="M2253.4,232.5c0.3,0,0.5,0.3,0.8,0.3c3.8-0.7,7.5-0.8,11.3-0.8h0.2h0c3.6,0,7.2,0.1,10.7,1.1
				c0,0,0-0.2-0.1-0.2c-1.6-1.3-3.3-2.4-5-3.5c-1.9-0.2-3.8-0.3-5.7-0.3h0h-0.2c-4,0-7.9,0.3-11.8,1l-0.3-0.1c-0.4,0-0.8-0.2-1-0.5
				c-0.3-0.3-0.4-0.7-0.4-1.1c0-0.5,0.2-0.9,0.7-1.2l7.1-4.5c-1-0.4-2-0.9-2.9-1.3l-5.6,3.5c-1.3,0.8-2,2.2-2,3.5
				c0,1.1,0.4,2.1,1.1,2.9C2251.1,232,2252.2,232.5,2253.4,232.5z"/>
			<path fill="#ABD1E6" d="M2251.9,345c-15.4,12.6-32.6,22.9-50.8,30.6c-1.9,4.5-3.7,9-5.4,13.5c22.8-8.3,44.1-20.6,62.9-35.9
				c17.5-14.3,32.8-31.2,45.1-50.1c0.3-6.5,0.1-13-0.8-19.4C2290.2,307.1,2272.7,328,2251.9,345z"/>
			<path fill="#ABD1E6" d="M2259.5,384.6c9.3-6.6,18.2-13.9,26.5-21.7c4.5-9.1,8.5-18.4,11.6-28c-12.7,15.6-27.7,29.4-44.1,41
				c-19.2,13.6-40.4,24.1-62.8,31.1c-0.2,0.9-0.3,1.8-0.5,2.6c10.3-1.7,20.6-3.5,30.9-5.2c-0.5,1-1,2-1.4,2.9
				C2233.6,401.1,2247,393.4,2259.5,384.6z"/>
			<path fill="#ABD1E6" d="M2248.8,407.8c-11.8,6.5-24.3,11.8-37.2,15.8c-2.1,4.3-4.2,8.5-6.3,12.8c16.9-4.3,33.3-10.8,48.6-19.3
				c0.3-0.1,0.5-0.3,0.8-0.4c4.1-6.8,8.2-13.5,12.3-20.2C2261.1,400.6,2255.1,404.4,2248.8,407.8z"/>
			<path fill="#4F626B" d="M2241.7,439.9c0.5-0.9,1-1.9,1.5-2.8c-15.3,1.5-30.3,5.7-44.2,12.3c-0.6,1.3-1.3,2.6-1.9,3.9
				C2210.9,446.2,2226.1,441.6,2241.7,439.9z"/>
		</g>
		<path fill="#C28258" d="M2038.6,450.7c-1.8-0.6-3.7-1.2-5.5-1.8l-5.4-2c-3.6-1.3-7.2-2.8-10.7-4.3c-1.8-0.8-3.5-1.6-5.2-2.4
			l-4.1-2l3.6-4.2l4.1-5.3l3.9-5.5l3.6-5.7l3.3-5.9l3-6l2.7-6.2l2.4-6.3l2.1-6.4c0.6-2.2,1.2-4.3,1.8-6.5l1.5-6.6l1.2-6.6l0.9-6.7
			l0.5-6.7l0.2-6.8l-0.2-6.8h-0.1c-0.4,2-0.7,2.3-1,3.5c-0.3,1.1-0.6,2.3-0.9,3.4c-0.7,2.2-1.4,4.3-1.9,6.5
			c-0.7,2.1-1.3,4.3-1.9,6.3c-0.7,2.1-1.4,4.2-2,6.2c-0.7,2-1.5,4.1-2.1,6.1c-0.8,2-1.5,4-2.2,6c-0.8,2-1.6,3.9-2.4,5.9
			c-0.9,1.9-1.7,3.9-2.5,5.8c-0.9,1.9-1.8,3.8-2.6,5.7l-2.8,5.6l-2.9,5.5c-1.1,1.8-2.1,3.6-3.1,5.4c-1.1,1.8-2.2,3.5-3.2,5.4
			l-3.4,5.3l-3.5,5.2c-1.3,1.7-2.4,3.4-3.7,5.1l-6.6,9.2l9.1,3.7c1.9,0.8,3.8,1.4,5.7,2.1c1.9,0.6,3.8,1.3,5.8,1.8
			c1.9,0.5,3.9,1.1,5.8,1.5c2,0.4,3.9,0.9,5.9,1.2c2,0.4,4,0.7,5.9,0.9c2,0.3,4,0.4,6,0.6c2,0.1,4,0.2,6,0.2c1,0,2,0,3-0.1
			c1,0,2-0.1,3-0.2C2046,452.9,2042.3,451.8,2038.6,450.7z"/>
		<path fill="#C28258" d="M2078.2,457.3c0,0,0.2,0.3,0.6,0.9c0.4,0.6,1,1.5,1.8,2.6c0.4,0.5,0.9,1.1,1.4,1.7c0.3,0.3,0.5,0.6,0.8,1
			c0.3,0.3,0.6,0.6,1,1c0.7,0.7,1.3,1.4,2.1,2.1c0.8,0.7,1.6,1.5,2.5,2.2c0.9,0.7,1.8,1.5,2.8,2.3c1,0.8,2.1,1.5,3.1,2.3
			c2.2,1.5,4.5,3.1,6.9,4.7c2.4,1.6,5,3.3,7.5,5.1c1.2,0.9,2.5,1.8,3.7,2.8l1.8,1.5c0.6,0.5,1.2,1,1.8,1.5c2.4,2.1,4.4,4.5,6.3,6.9
			c0.9,1.3,1.7,2.6,2.5,3.9c0.3,0.7,0.7,1.3,1,2c0.3,0.7,0.6,1.4,0.9,2.1c2.2,5.5,3,11,3.4,15.6c0.4,4.7,0.2,8.6,0.2,11.3
			c-0.1,2.7-0.1,4.3-0.1,4.3s-0.1-0.4-0.2-1.1c-0.1-0.7-0.4-1.8-0.7-3.2c-0.3-1.4-0.6-3-0.9-4.9c-0.4-1.8-0.8-3.9-1.2-6.2
			c-0.5-2.2-1.1-4.6-1.8-7c-0.7-2.4-1.7-4.8-2.8-7.2c-0.3-0.5-0.6-1.1-0.9-1.6c-0.3-0.6-0.8-1.3-1.1-1.9c-0.4-0.5-0.7-1-1.1-1.5
			c-0.4-0.5-0.7-1.1-1.2-1.6c-1.7-2.1-3.6-4.2-5.8-6c-0.5-0.5-1-1-1.6-1.5l-1.7-1.4c-1.1-1-2.3-1.8-3.5-2.7
			c-0.6-0.5-1.2-0.9-1.8-1.3c-0.6-0.5-1.2-0.9-1.8-1.4c-1.2-0.9-2.4-1.8-3.5-2.7c-2.4-1.7-4.6-3.6-6.7-5.4c-1-0.9-2.1-1.8-3-2.7
			c-0.9-0.9-1.8-1.9-2.6-2.7c-0.8-0.9-1.6-1.8-2.3-2.7c-0.7-0.9-1.3-1.8-1.8-2.6c-0.3-0.4-0.6-0.8-0.8-1.2c-0.2-0.4-0.5-0.8-0.7-1.2
			c-0.4-0.8-0.8-1.5-1.1-2.1c-0.6-1.3-0.9-2.3-1.1-3C2078.3,457.7,2078.2,457.3,2078.2,457.3L2078.2,457.3z"/>
		<path fill="#C28258" d="M1979.8,466c0,0-0.2,0.1-0.7,0.4c-0.5,0.3-1.2,0.6-2,1.1c-0.9,0.5-1.8,1.2-3,2c-1.1,0.8-2.3,1.8-3.6,2.9
			c-1.2,1.2-2.6,2.4-3.8,3.9c-1.3,1.5-2.5,3.1-3.6,4.9c-1.1,1.8-2.1,3.7-3,5.7c-0.9,2-1.6,4.2-2.1,6.3c-0.6,2.2-0.9,4.4-1.1,6.6
			c-0.2,2.2-0.2,4.4,0,6.5c0.2,2.1,0.5,4.1,0.9,6c0.4,1.9,1,3.6,1.5,5.2c0.6,1.6,1.2,3,1.8,4.3c0.6,1.2,1.2,2.3,1.7,3.1
			c0.5,0.9,1,1.5,1.2,1.9c0.3,0.4,0.5,0.7,0.5,0.7s-0.2-0.2-0.7-0.5c-0.4-0.4-1.1-0.8-1.9-1.6c-0.8-0.7-1.7-1.6-2.6-2.8
			c-0.4-0.6-0.9-1.2-1.4-1.9c-0.5-0.7-0.9-1.4-1.4-2.2c-0.4-0.8-0.9-1.6-1.3-2.5c-0.4-0.9-0.8-1.9-1.2-2.9c-0.7-2-1.3-4.2-1.7-6.5
			c-0.2-1.2-0.3-2.4-0.4-3.6c-0.1-1.2-0.1-2.4-0.1-3.7c0.1-2.4,0.5-5.3,1-7.4l0.1-0.4l0.1-0.2l0.1-0.5l0.3-0.9
			c0.2-0.6,0.4-1.2,0.6-1.8c0.4-1.2,1-2.3,1.5-3.5c0.6-1.1,1.1-2.2,1.8-3.2c0.6-1,1.3-2,2-3c1.4-1.9,3-3.5,4.6-4.9
			c0.8-0.7,1.6-1.4,2.4-2c0.8-0.6,1.6-1.1,2.4-1.6c0.8-0.5,1.5-0.9,2.3-1.3c0.8-0.3,1.5-0.7,2.1-1c0.7-0.3,1.3-0.5,1.9-0.7
			c0.6-0.2,1.2-0.4,1.7-0.5c1-0.3,1.8-0.4,2.4-0.5C1979.5,466.1,1979.8,466,1979.8,466L1979.8,466z"/>
		<path fill="#C28258" d="M1967.6,558.4c0,0,0,0.7,0.1,2.1c0.1,1.4,0.2,3.4,0.5,6c0.2,2.6,0.6,5.7,1.2,9.3c0.6,3.5,1.5,7.5,3,11.7
			c1.5,4.1,3.5,8.5,6.8,12.3c0.8,0.9,1.6,1.9,2.6,2.7c0.5,0.4,0.9,0.9,1.4,1.3c0.5,0.4,1,0.8,1.6,1.1l0.8,0.6l0.9,0.5
			c0.6,0.3,1.2,0.7,1.7,1c1.1,0.6,2.4,1.1,3.6,1.6c5.1,1.8,10.8,2.3,16.5,1.9c5.7-0.4,11.5-1.6,17.1-3.3c2.9-0.7,5.6-1.7,8.4-2.6
			c2.7-1.1,5.5-2,8.1-3.3c5.3-2.3,10.4-5,15.1-7.8c1.2-0.7,2.3-1.5,3.5-2.2c1.2-0.7,2.2-1.5,3.3-2.2c2.2-1.4,4.3-3,6.3-4.6
			c2-1.5,3.9-3.1,5.7-4.6c1.8-1.6,3.5-3.1,5.1-4.7c3.2-3.1,6-6,8.4-8.7c1.2-1.4,2.3-2.7,3.3-3.8c1-1.2,1.8-2.4,2.6-3.4
			c1.6-2,2.7-3.8,3.5-4.9c0.8-1.1,1.2-1.7,1.2-1.7s-0.2,0.7-0.7,2.1c-0.3,0.7-0.6,1.5-0.9,2.5c-0.2,0.5-0.4,1-0.6,1.6
			c-0.3,0.5-0.5,1.1-0.8,1.7c-0.6,1.2-1.2,2.6-1.9,4c-0.7,1.4-1.6,2.9-2.6,4.6c-0.9,1.6-2.1,3.3-3.2,5.1c-1.2,1.8-2.6,3.5-4,5.4
			c-1.4,1.9-3.1,3.6-4.7,5.6c-0.8,0.9-1.8,1.8-2.7,2.8c-0.9,0.9-1.8,1.9-2.8,2.8c-2,1.8-4,3.7-6.3,5.5c-2.2,1.9-4.5,3.5-7,5.2
			c-2.4,1.7-5,3.3-7.6,4.8c-1.3,0.7-2.7,1.5-4,2.3c-1.4,0.8-2.8,1.4-4.2,2.1c-1.4,0.7-2.8,1.4-4.3,1.9c-1.5,0.6-2.9,1.2-4.4,1.8
			c-3.1,1.1-6.4,2.3-9.1,3c-6.1,1.7-12.7,3.1-19.4,3.3c-3.4,0.1-6.8,0-10.2-0.6c-3.4-0.5-6.9-1.4-10.1-2.8c-0.8-0.4-1.6-0.7-2.4-1.1
			c-0.8-0.4-1.7-0.9-2.5-1.4c-1-0.5-1.4-0.9-2-1.3l-0.8-0.6l-0.1,0c0,0-0.6-0.4-0.3-0.2l-0.1-0.1l-0.2-0.2l-0.5-0.4
			c-0.6-0.6-1.3-1.1-1.9-1.7c-0.6-0.6-1.2-1.2-1.7-1.8c-0.5-0.6-1.1-1.2-1.6-1.8c-0.5-0.6-0.9-1.3-1.4-1.9
			c-3.6-5.2-5.4-10.6-6.4-15.4c-1-4.8-1.3-9.2-1.2-13c0-3.8,0.4-7.1,0.7-9.7c0.1-1.3,0.3-2.5,0.5-3.5c0.2-1,0.3-1.9,0.5-2.6
			C1967.4,559.1,1967.5,558.4,1967.6,558.4L1967.6,558.4z"/>
		<path fill="#FFFFFF" d="M2100,494.9c0,0-15.3,23.9-47.9,37.9c-7.8,3.4-16.7,6.2-26.6,7.9c-17.7,3.1-30.1,1.2-38.7-3.5
			c-16.2-8.9-18.9-27.9-17.5-42.3C2003.6,505.3,2100,494.9,2100,494.9z"/>
		<path fill="#C28258" d="M2100,494.9c0,0-1.1,2.6-3.8,6.7c-1.4,2-3.1,4.6-5.3,7.2c-2.2,2.7-4.8,5.6-7.9,8.6c-1.6,1.5-3.2,3-5,4.5
			c-0.9,0.7-1.8,1.5-2.7,2.3c-1,0.7-1.9,1.5-2.9,2.2c-0.5,0.4-1,0.7-1.5,1.1c-0.5,0.3-1,0.7-1.6,1.1c-1.1,0.7-2.1,1.4-3.2,2.1
			c-1.1,0.7-2.2,1.3-3.4,2c-1.2,0.6-2.3,1.4-3.5,2c-2.4,1.2-4.9,2.5-7.4,3.6c-2.6,1.1-5.2,2.2-7.9,3.1c-5.4,1.9-11,3.3-16.7,4.4
			l-1.1,0.2l-1,0.2l-2.1,0.3c-1.5,0.2-3,0.4-4.4,0.5c-2.9,0.3-5.8,0.4-8.8,0.4c-2.9,0-5.9-0.3-8.8-0.7c-2.9-0.4-5.8-1.1-8.5-2
			c-2.7-0.9-5.4-2.1-7.8-3.6c0,0-0.4-0.2-0.2-0.1l0,0l-0.1-0.1l-0.2-0.1l-0.4-0.3l-0.8-0.5c-0.5-0.4-1-0.6-1.6-1.1
			c-1.1-0.9-2.3-1.8-3.2-2.8c-3.8-3.8-6.4-8.3-7.9-12.5c-1.6-4.2-2.2-8.3-2.5-11.8c-0.3-3.5-0.1-6.6,0.2-9c0.1-1.2,0.3-2.3,0.4-3.3
			c0.2-0.9,0.3-1.7,0.5-2.4c0.3-1.3,0.5-2,0.5-2s0.1,0.7,0.1,2c0.1,1.3,0.3,3.2,0.6,5.6c0.3,2.4,0.9,5.3,1.8,8.4
			c0.9,3.1,2.1,6.6,4,9.9c1.9,3.3,4.4,6.6,7.7,9.1c0.4,0.4,0.8,0.6,1.2,0.9c0.4,0.3,0.8,0.6,1.2,0.8c0.4,0.3,1,0.6,1.6,0.9l0.8,0.5
			l0.4,0.2l0.2,0.1l0.1,0.1l0.1,0c0.2,0.1-0.2-0.1-0.1-0.1c2,0.9,4.1,1.7,6.3,2.3c4.5,1.1,9.4,1.5,14.5,1.4c2.5-0.1,5.1-0.3,7.7-0.5
			c1.3-0.1,2.6-0.3,3.8-0.5l2-0.3l1.9-0.3c5.2-0.9,10.4-2.2,15.4-3.7c2.5-0.8,5-1.6,7.4-2.5l1.8-0.7c0.6-0.2,1.2-0.5,1.7-0.7
			c1.2-0.5,2.3-1,3.5-1.5c2.3-1,4.5-2.1,6.7-3.1c2.1-1.2,4.3-2.2,6.2-3.4c1-0.6,2-1.1,3-1.7c1-0.6,1.9-1.2,2.8-1.8
			c1.9-1.1,3.6-2.4,5.3-3.5c3.3-2.3,6.3-4.6,8.9-6.7c2.6-2.1,4.8-4.1,6.6-5.7c1.7-1.7,3.2-3,4-3.9
			C2099.5,495.4,2100,494.9,2100,494.9z"/>
		<circle fill="#4A5B63" cx="2109.1" cy="369" r="12.9"/>
		<circle fill="#FFFFFF" cx="2114.5" cy="366.3" r="4.9"/>
		<circle fill="#4A5B63" cx="1995.4" cy="355.8" r="12.9"/>
		<path fill="#C28258" d="M2069,376.7c0,0-0.2-0.4-0.4-1.1c-0.2-0.7-0.5-1.9-0.5-3.4c0-1.5,0.1-3.4,0.8-5.4c0.6-2.1,1.7-4.3,3.2-6.5
			c0.7-1.1,1.6-2.1,2.5-3.2c0.5-0.5,1-1,1.5-1.5l0.4-0.4l0.1-0.1l0,0c-0.1,0.1,0.2-0.1,0.2-0.1l0,0l0.2-0.2l0.7-0.6
			c0.2-0.2,0.5-0.4,0.7-0.6c0.3-0.2,0.6-0.5,1-0.7c0.7-0.5,1.4-1,2-1.4c1.3-0.9,2.7-1.6,4.2-2.3c0.7-0.3,1.5-0.7,2.3-1
			c0.8-0.3,1.6-0.6,2.4-0.8c0.8-0.3,1.6-0.5,2.5-0.7c0.8-0.2,1.7-0.3,2.5-0.5c3.4-0.7,7-0.8,10.5-0.5c3.5,0.3,7.1,1,10.4,2.3
			l1.2,0.5l0.8,0.3c0.2,0.1,0.3,0.1,0.5,0.2l0.9,0.5l1.1,0.6c0.8,0.4,1.7,0.9,2.4,1.3c0.7,0.4,1.4,0.9,2.1,1.4
			c2.7,1.9,5,4.1,6.8,6.3c1.9,2.3,3.4,4.6,4.5,6.8c0.6,1.1,1,2.2,1.4,3.3c0.3,1.1,0.7,2.1,0.9,3.1c0.5,1.9,0.7,3.7,0.8,5.1
			c0.1,1.4,0,2.5-0.1,3.3c-0.1,0.8-0.1,1.2-0.1,1.2s-0.1-0.3-0.4-0.9c-0.1-0.3-0.3-0.7-0.5-1.1c-0.2-0.4-0.5-0.9-0.8-1.5
			c-0.6-1.1-1.3-2.4-2.3-3.9c-1-1.4-2.2-3-3.6-4.6c-2.8-3.2-6.7-6.4-11.2-9c-1.2-0.6-2.4-1.2-3.6-1.7c-0.6-0.3-1.3-0.5-1.9-0.7
			l-0.5-0.2c-0.1,0-0.3-0.1-0.5-0.1l-1-0.3c-2.6-0.8-5.4-1.3-8.2-1.5c-5.6-0.5-11.3,0.2-16.2,1.9c-2.5,0.9-4.8,1.9-6.9,3.1
			c-2.1,1.2-4,2.5-5.6,3.9c-3.2,2.8-5.2,5.8-6.1,8.1c-0.5,1.2-0.7,2.1-0.9,2.8C2069.1,376.4,2069,376.7,2069,376.7L2069,376.7z"/>
		<path fill="#C28258" d="M1967.2,353c0,0,0-0.3,0-0.9c0.1-0.6,0-1.4,0.3-2.6c0.1-0.6,0.3-1.2,0.5-1.9c0.2-0.6,0.5-1.3,0.8-2.1
			c0.3-0.7,0.8-1.4,1.2-2.2c0.5-0.8,1.1-1.5,1.7-2.3c0.7-0.7,1.4-1.5,2.2-2.2c0.8-0.7,1.7-1.4,2.7-2.1c1.9-1.3,4.2-2.4,6.6-3.2
			c1.2-0.4,2.5-0.7,3.9-0.9c1.3-0.3,2.7-0.3,4.1-0.4c1.4,0.1,2.9,0,4.3,0.3c0.7,0.1,1.4,0.2,2.1,0.4l1.1,0.3l0.5,0.1l0.3,0.1l0.1,0
			l0.5,0.2c1,0.4,1.7,0.6,3.4,1.5c1.6,0.7,2.6,1.6,3.8,2.4c1.1,0.9,2.2,1.7,3.1,2.8c1,1,1.8,2,2.6,3c1.5,2.1,2.7,4.3,3.4,6.5
			c0.4,1.1,0.7,2.2,0.9,3.2c0.2,1.1,0.3,2.1,0.4,3.1c0,1,0.1,1.9,0,2.8c-0.1,0.9-0.2,1.7-0.3,2.5c-0.3,1.6-0.8,2.9-1.3,3.9
			c-0.4,1-1,1.8-1.3,2.3c-0.3,0.5-0.6,0.7-0.6,0.7s0-0.3,0-0.8c0-0.5,0-1.2-0.2-2.1c-0.1-0.5-0.1-1-0.2-1.5
			c-0.1-0.5-0.2-1.1-0.4-1.7c-0.2-0.6-0.4-1.2-0.6-1.9c-0.2-0.7-0.5-1.3-0.8-2.1c-0.6-1.4-1.4-2.9-2.4-4.3c-0.9-1.5-2.2-2.9-3.4-4.3
			c-1.3-1.4-2.9-2.6-4.5-3.7c-1.7-1.1-3.4-1.9-5.4-2.6c-1.8-0.6-3.9-1-5.8-1.2c-2-0.1-3.9,0-5.8,0.3c-1.9,0.4-3.7,0.7-5.3,1.4
			c-1.7,0.6-3.1,1.3-4.5,2.1c-0.6,0.4-1.3,0.8-1.9,1.2c-0.6,0.4-1.1,0.8-1.6,1.2c-0.5,0.4-0.9,0.8-1.3,1.2c-0.4,0.4-0.7,0.7-1.1,1.1
			c-0.6,0.6-1.1,1.2-1.4,1.6C1967.4,352.8,1967.3,353,1967.2,353L1967.2,353z"/>
		<path fill="#4A5B63" d="M2126.9,334.1c3.6,1.3,7.2,3,11,3.5c3.8,0.4,8.2-0.7,10.2-4c2-3.2,1.2-7.5-1-10.5c-2.2-3-5.5-4.9-9-6.4
			c-17.3-7.6-37.1-5.7-55.8-3c-5.6,0.8-12.3,2.5-14,7.9c-1.9,5.9,4,11.8,10.1,12.7c6.1,1,12.2-1.3,18.2-2.5
			C2106.8,329.8,2117.3,330.6,2126.9,334.1z"/>
		<path fill="#4A5B63" d="M1979.5,305.7c-3.3,0.4-6.7,1.2-9.9,0.7c-3.2-0.5-6.4-2.6-7.1-6.3c-0.7-3.5,1.1-7.4,3.7-9.8
			c2.6-2.4,5.9-3.4,9.1-4c16.1-3.1,31.6,3.4,46,10.4c4.3,2.1,9.2,5.3,9.1,10.9c-0.1,6.1-6.6,10.3-11.8,9.8c-5.2-0.5-9.5-4.1-14-6.7
			C1997.1,306.4,1988.3,304.6,1979.5,305.7z"/>
		<circle fill="#FFFFFF" cx="2000.7" cy="355.7" r="4.9"/>
		<path fill="#C1272D" d="M2141.8,342.3c-9.4-9.6-22.5-15.6-37-15.6c-14.4,0-27.5,6-37,15.6c-6.3,6.4-11,14.5-13.4,23.5
			c-6.7-2.5-13.9-3.8-21.1-3.8c0.4-2.8,0.7-5.7,0.7-8.6c0-14.6-5.8-27.9-15.3-37.5c-9.4-9.6-22.5-15.6-37-15.6
			c-14.4,0-27.5,6-37,15.6c-9.4,9.6-15.3,22.9-15.3,37.5c0,14.6,5.8,27.9,15.3,37.5c9.4,9.6,22.5,15.6,37,15.6
			c14.4,0,27.5-6,37-15.6c5.7-5.8,10.1-13,12.7-20.9c0.6,0,1.2,0,1.8,0c6.7,0,13.5,1.3,19.7,3.8c-0.2,2-0.4,4-0.4,6.1
			c0,14.6,5.8,27.9,15.3,37.5c9.4,9.6,22.5,15.6,37,15.6c14.4,0,27.5-6,37-15.6c9.4-9.6,15.3-22.9,15.3-37.5
			C2157.1,365.1,2151.3,351.9,2141.8,342.3z M2013.1,385.3c-8,8.2-19.1,13.2-31.3,13.2c-12.2,0-23.3-5-31.3-13.2
			c-8-8.2-13-19.4-13-31.9c0-12.5,5-23.8,13-31.9c8-8.2,19.1-13.2,31.3-13.2c12.2,0,23.3,5,31.3,13.2c8,8.2,13,19.4,13,31.9
			C2026.1,365.8,2021.2,377.1,2013.1,385.3z M2136.2,411.7c-8,8.2-19.1,13.2-31.3,13.2c-12.2,0-23.3-5-31.3-13.2
			c-8-8.2-13-19.4-13-31.9c0-12.5,5-23.8,13-31.9c8-8.2,19.1-13.2,31.3-13.2c12.2,0,23.3,5,31.3,13.2c8,8.2,13,19.4,13,31.9
			C2149.2,392.3,2144.2,403.5,2136.2,411.7z"/>
		<path fill="#C1272D" d="M2249.4,457.3c-4.4-9-10.5-16.1-17.6-20.3c-12.2-7.2-32.2-18-49.1-27.1c-16.9-9.1-30.8-16.3-30.8-16.4
			c-1.9-1-4.3-0.3-5.4,1.7c-1,1.9-0.3,4.3,1.7,5.4h0c0,0,0.9,0.5,2.4,1.3c5.5,2.9,19.5,10.3,34.8,18.5c15.3,8.2,31.9,17.3,42.4,23.5
			c5.3,3.1,10.6,9.1,14.5,16.9c3.9,7.9,6.4,17.6,6.4,28.1c0,10.1-2.3,21-7.9,31.8c-5.6,10.7-14.5,21.4-27.8,31.1
			c-1.8,1.3-2.2,3.8-0.9,5.5s3.8,2.2,5.5,0.9c14.2-10.3,23.9-21.9,30.1-33.8c6.2-11.9,8.8-24.1,8.8-35.4
			C2256.6,477.1,2253.8,466.2,2249.4,457.3z"/>
		<path fill="#FFAD75" d="M2258.3,455.1c-6.8-4.9-15.4-6.6-23.8-7.2c-13.3-0.9-27.1,1.1-38.8,7.5c-11.7,6.4-21.2,17.5-24,30.5
			l-4.5,44.7c15.7,13.2,38,18.2,57.8,13c19.9-5.2,36.8-20.5,43.9-39.8C2275.2,487,2272.9,465.4,2258.3,455.1z"/>
		<path fill="#C28258" d="M2188.4,498.3c0,0,0.2-0.6,0.7-1.6c0.5-1,1.1-2.6,2.1-4.4c1-1.9,2.2-4.1,3.9-6.6c1.6-2.4,3.7-5.1,6.4-7.6
			c2.6-2.5,5.9-4.9,9.7-6.8c3.8-1.9,8.2-3.2,12.8-3.4c2.3-0.1,4.7,0.1,7.1,0.6c2.4,0.5,4.7,1.4,6.8,2.6c4.3,2.4,8,6.1,10.2,10.7
			c1.1,2.3,1.6,4.9,1.8,7.3c0.2,2.6-0.2,5.1-1,7.4c-1.4,4.7-4.3,8.8-7.6,12c-1.7,1.6-3.5,3-5.4,4.2c-0.9,0.6-1.9,1.1-2.9,1.6
			c-1,0.4-2,0.9-3,1.3c-3.9,1.5-7.9,2.3-11.5,2.7c-3.6,0.4-7,0.5-9.9,0.4c-2.9-0.1-5.5-0.3-7.6-0.4c-4.2-0.4-6.6-0.6-6.6-0.6
			s0.6-0.2,1.8-0.4c1.1-0.2,2.8-0.7,4.9-1c2.1-0.4,4.7-1,7.5-1.6c2.8-0.6,5.9-1.4,9.1-2.4c1.6-0.5,3.2-1.1,4.8-1.7
			c0.7-0.4,1.6-0.7,2.3-1c0.3-0.2,0.7-0.3,1-0.5c0.5-0.2,0.9-0.5,1.4-0.7c2.7-1.6,5.4-3.8,7.5-6.4c1.1-1.3,2-2.7,2.8-4.1
			c0.8-1.4,1.3-2.9,1.6-4.2c0.2-0.7,0.2-1.4,0.3-2c0-0.3,0-0.6,0-1c0-0.3,0-0.4,0-0.5l0-0.1l0-0.1l0-0.2l-0.1-0.9l-0.1-0.9l0-0.2
			c-0.1-0.5,0.1,0.6,0.1,0.5l0,0l0-0.1l-0.1-0.2c-0.1-0.3-0.1-0.6-0.3-0.9c-0.1-0.3-0.2-0.6-0.4-0.8c-1-2.3-3.1-4.5-5.6-6.2
			c-1.2-0.8-2.7-1.4-3.8-1.9l-0.8-0.2l-0.4-0.1l-0.1,0c-0.3-0.1,0.3,0.1,0.3,0l-0.1,0l-0.1,0c-0.4-0.1-0.7-0.2-1.1-0.2
			c-0.8-0.1-1.5-0.3-2.3-0.3c-3.2-0.2-6.6,0.2-9.8,1.2c-1.6,0.4-3.2,1.1-4.6,1.7c-0.3,0.1-0.7,0.3-1.1,0.5l-0.6,0.3l-0.3,0.2l0,0
			l0.1-0.1l-0.1,0l-0.1,0.1c-0.7,0.4-1.4,0.8-2.1,1.2c-2.7,1.7-5.1,3.6-7.2,5.5c-2.1,1.9-3.9,3.7-5.3,5.2c-1.4,1.6-2.6,2.8-3.4,3.7
			C2188.9,497.9,2188.4,498.3,2188.4,498.3L2188.4,498.3z"/>
		<polygon fill="#E6E6E6" points="2386,1991.4 1998.3,2005.9 1997.8,2005.8 1939.5,1993.8 1780,1960.9 1798.6,1565.4 1769.5,737.1 
			1922.9,706.7 1963.9,652.5 2165,644.5 2200.8,693.5 2383.5,753 2370.1,1018.9 		"/>
		<polygon fill="#F2F2F2" points="2200.8,693.5 2088.2,841.3 2033.9,912.6 2001.9,853.3 1922.9,706.7 1963.9,652.5 2165,644.5 		"/>
		<path fill="#4A5B63" d="M2088.2,841.3l-54.3,71.3l-32-59.3c8.1-29.1,19.8-68.2,32-99l24.3-3.3L2088.2,841.3z"/>
		<path fill="#303B40" d="M2063.7,767.7l-5.5-16.7l-24.3,3.3c-3.3,8.2-6.5,17.1-9.6,26.2c1.3,0.4,2.6,0.8,3.9,1
			C2041.2,784,2054.7,777.5,2063.7,767.7z"/>
		<path fill="#4A5B63" d="M2048.9,687.5l-35.4,46.6c1,7.4,3,14.6,6.2,21.4c1.3,2.8,2.9,5.4,5.1,7.6c3,2.9,7,4.5,11.1,5.3
			c14,2.6,28.4-5,37.4-16c2.5-3.1,4.7-6.5,6.6-10L2048.9,687.5z"/>
		<path fill="#CCCCCC" d="M1949.1,685.3l21.3,36.7l5.3,9.2l5.3,9.2l10.5,18.4l-1.1-0.1l27.7-39.7l13.9-19.8l6.9-9.9l1.7-2.5l0.2-0.3
			l0.3-0.3l0.5-0.6c0.4-0.4,0.8-0.9,1.3-1.2c0.9-0.7,1.9-1.2,3-1.6c1.1-0.3,2.2-0.5,3.3-0.4c2.2,0.1,4.5,1,6.1,2.6
			c0.9,0.7,1.5,1.7,2,2.7l1.4,2.7c1.9,3.6,3.7,7.2,5.5,10.8l11,21.6l21.9,43.2l-1.3-0.1l35.7-50.1c3-4.2,5.9-8.4,8.9-12.5l9-12.5
			l18-25c-1.2,2.3-2.5,4.5-3.7,6.8c-1.3,2.3-2.5,4.5-3.8,6.8l-3.8,6.7c-1.3,2.2-2.5,4.5-3.9,6.7l-7.9,13.3c-1.3,2.2-2.6,4.4-4,6.6
			l-4.1,6.6l-8.1,13.1c-2.7,4.4-5.5,8.7-8.3,13l-8.3,13l-4.2,6.5l-4.3,6.4l-7.4,11.2l-6.6-12.2l-11.6-21.3
			c-1.9-3.5-3.9-7.1-5.7-10.7l-5.6-10.7l-11.2-21.4l-2.8-5.4l-2.7-5.4l-1.4-2.7l0.1,0.2c0.2,0.1,0.4,0.2,0.5,0.2l0.2-0.1l0.3-0.2
			l0.2-0.2l0.1-0.2l0.1-0.1l0-0.1l0,0.1l-0.5,0.6l-0.1,0.1l-0.1,0.1l0,0c-0.1,0.1,0.7-0.9,0.3-0.5l-0.2,0.3l-1.8,2.5l-7,9.8
			c-2.3,3.3-4.8,6.5-7.2,9.7l-7.2,9.7l-7.2,9.7c-2.4,3.2-4.8,6.5-7.3,9.7l-14.8,19.2l-6.7,8.7l-4.7-9.3l-2.4-4.7l-2.3-4.8l-4.7-9.6
			l-4.7-9.6c-1.6-3.2-3-6.4-4.5-9.6l-4.5-9.6c-1.5-3.2-2.9-6.5-4.4-9.7c-1.4-3.3-2.9-6.5-4.3-9.8
			C1951.8,691.9,1950.4,688.6,1949.1,685.3L1949.1,685.3z"/>
		<path fill="#B3B3B3" d="M2224,746.7c-2,10.2-4,20.5-5.9,30.7l-11.3,61l-70.6,10.7c-1.5,0.2-2.9,0.4-4.5,0.7
			c-1.6,0.3-3.2,1.1-4.4,2.2c-2.5,2.1-4,5.5-3.6,8.9l0.1,0.7l0.1,0.5c0,0.2,0.1,0.3,0.1,0.6l0.2,0.5l0.6,2.2l1.2,4.3l2.5,8.6
			l9.8,33.8l-77.6,35.9c-13.1,6-26.1,12-39.1,18.2l-39,18.3c0.4-0.5,3.8-4.9,9.5-12.4c6-7.9,14.8-19.1,25-32.7
			c20.6-27.2,48-63.5,75.4-99.8c27.2-36.5,54.3-73,74.7-100.3c5.1-6.8,9.7-13.1,13.8-18.7c4.1-5.6,7.7-10.5,10.6-14.5
			c5.9-8,9.2-12.6,9.2-12.6l0,0c0,0-1,1-2.9,2.9c-1.8,1.9-4.6,4.7-8,8.4c-3.4,3.7-7.6,8.1-12.2,13.3c-2.3,2.6-4.8,5.3-7.4,8.3
			c-2.6,2.9-5.2,6-8,9.3c-2.8,3.2-5.7,6.6-8.7,10.1c-3,3.5-6,7.2-9.1,10.9c-6.2,7.5-12.9,15.4-19.5,23.8c-3.3,4.2-6.7,8.4-10.1,12.7
			c-1.7,2.1-3.4,4.3-5.2,6.5c-1.7,2.2-3.4,4.4-5.1,6.6c-6.8,8.9-13.7,17.9-20.6,27c-6.7,9.2-13.5,18.3-20.1,27.3
			c-1.7,2.3-3.3,4.5-4.9,6.7c-1.6,2.3-3.2,4.5-4.8,6.8c-3.2,4.5-6.3,8.9-9.4,13.3c-6.2,8.7-11.9,17.3-17.4,25.4
			c-2.7,4.1-5.4,8-7.9,11.8c-2.5,3.9-4.9,7.6-7.3,11.2c-1.7,2.6-3.3,5.1-4.9,7.6l-21-11.6l-12.7-7l-12.7-6.9l-50.2-27.1l10.2-28.3
			l5.2-14.5l2.6-7.3l0.6-1.8c0.2-0.6,0.5-1.3,0.5-2.1c0.2-1.5-0.2-3-1-4.3c-0.8-1.3-2-2.3-3.4-2.8c-0.4-0.2-0.7-0.2-1-0.3l-1-0.2
			l-1.9-0.4l-7.5-1.5l-15.1-3l-29.5-5.9l2.8-43.4l2.5-44l-0.1,0c-0.4,1.8-0.8,3.6-1.2,5.4l-1.1,5.4l-2,10.9
			c-0.4,1.8-0.6,3.6-0.9,5.5l-0.9,5.5c-0.6,3.6-1.3,7.3-1.8,10.9l-1.6,10.9l-0.8,5.5c-0.2,1.8-0.6,3.6-0.8,5.5l-2.7,21.9l-0.8,6.3
			l7,1.9c5,1.3,10,2.5,14.9,3.7c5,1.2,10,2.4,15,3.5c5,1.2,10,2.3,15,3.4l6.2,1.4c-0.7,1.9-1.4,3.8-2.1,5.8l-5.1,14.5
			c-0.9,2.4-1.6,4.9-2.5,7.3l-2.5,7.3c-1.7,4.9-3.2,9.7-4.8,14.6l-2.4,7.4l6.6,3.3c4.3,2.2,8.6,4.3,13,6.4l6.5,3.2l6.5,3.1l13.1,6.1
			l6.6,3.1l6.6,2.9l13.2,5.8c2.2,1,4.5,1.9,6.7,2.8l6.7,2.8c2.2,0.9,4.4,1.9,6.7,2.8l6.8,2.7c2.2,0.9,4.5,1.8,6.8,2.6
			c0.7,0.3,1.4,0.5,2.2,0.8c-0.4,0.7-0.9,1.4-1.3,2.1c-2.1,3.3-4,6.4-5.9,9.4c-3.7,5.9-6.8,11.1-9.4,15.4c-2.6,4.3-4.5,7.7-5.9,10
			c-1.2,2.1-1.9,3.3-2,3.6l0,0l0,0.1c3.4-1.1,6.9-2.3,10.3-3.5c3.4-1.1,6.8-2.4,10.2-3.6l10.2-3.7l10.1-3.8l10.1-3.8
			c3.4-1.2,6.7-2.6,10.1-3.9l20.1-7.9l20-8.2c6.6-2.8,13.3-5.4,20-8.3l19.8-8.5l9.9-4.3c3.3-1.4,6.6-2.8,9.9-4.3l7.1-3.3l-2.1-7.6
			l-9.7-34.7l-2.4-8.7c-0.4-1.4-0.8-2.9-1.2-4.3l-0.6-2.2l-0.1-0.4l0.3,0l1.1-0.2l2.2-0.4l17.8-2.9l8.9-1.5l8.9-1.6l35.4-6.4
			l5.9-1.1l0.8-5.4l4.4-31c0.4-2.6,0.8-5.2,1.1-7.8l1-7.8l2-15.5c0.3-2.6,0.7-5.2,0.9-7.8l0.9-7.8l1.7-15.6l1.5-15.6l0.7-7.8
			c0.2-2.6,0.4-5.2,0.6-7.8L2224,746.7z M1922.1,839.7C1922.4,839.7,1922.7,839.8,1922.1,839.7C1922,839.7,1922,839.7,1922.1,839.7
			L1922.1,839.7z M1919.6,835.1L1919.6,835.1L1919.6,835.1l0,0.1L1919.6,835.1z M2133.9,859.9l-0.1,0L2133.9,859.9L2133.9,859.9
			L2133.9,859.9z M2133.9,859.2l0.1,0.3l0,0.1L2133.9,859.2z"/>
		<polygon fill="#CCCCCC" points="1997.2,2005.8 1938.8,1993.8 1938.8,1658.8 1981.1,993.8 1981.1,1045.6 		"/>
		<circle fill="#4A5B63" cx="2011.2" cy="1045.1" r="12.9"/>
		<circle fill="#4A5B63" cx="2013.9" cy="1227.7" r="12.9"/>
		<path fill="#B3B3B3" d="M2296.8,949.6l-1.3,0l-8.4,0l-0.8-1l-0.2,1l-64.2,0.3l-18.5,0.1c-6.1,0-12.3,0-18.4,0.1l-37,0.5v0.1
			c4,0.5,6.3,0.9,9.3,1.3c3.1,0.4,6.3,0.7,9.4,1.1l4.6,0.5l4.6,0.5l9.2,0.9c3.1,0.3,6.1,0.6,9.2,0.8l9.2,0.7
			c3.1,0.2,6.1,0.5,9.2,0.7l9.2,0.5l9.2,0.5c3.1,0.2,6.1,0.4,9.2,0.5c6.1,0.2,12.3,0.5,18.4,0.7c6.1,0.2,12.3,0.4,18.4,0.4l6.7,0.1
			l-2.2,10.3c-0.7,3.6-1.5,7.2-2.2,10.8l-0.6,3.2c-2.6-0.1-5.2-0.2-7.8-0.3c-5.3-0.3-10.6-0.4-16-0.6c-5.3-0.2-10.7-0.2-16-0.3
			l-16-0.3l-16,0.1c-2.7,0-5.3,0-8,0.1l-8,0.2l-8,0.2l-8,0.4c-2.7,0.1-5.4,0.2-8,0.4c-2.7,0.2-5.4,0.3-8,0.6l31.8,2.7
			c10.6,0.9,21.2,1.7,31.8,2.5l63.7,4.9l0.8,0.1l0.2-0.8l4.7-21.6l2.4-10.8l0.3-1.6c0.3,0,0.6,0,1,0l-0.8-1l1.7-8.3L2296.8,949.6z"
			/>
		<path fill="#B3B3B3" d="M2292,1031.3l-71.9,0.2l-18,0.1l-18,0.2l-36.1,0.3v0.1c4,0.4,6.1,0.7,9.1,1c3,0.3,6.2,0.6,9.2,0.9l9,0.8
			c3,0.3,6,0.5,9,0.7l18,1.3l18,1l9,0.5c3,0.2,6,0.3,9,0.4l18,0.7l9,0.4c3,0.1,6,0.2,9,0.3l8.8,0.2l-0.4,6.9
			c-0.2,2.6-0.3,5.2-0.4,7.8l-0.3,7.8l-1.4,31.2c-0.1,2.6-0.2,5.2-0.3,7.8l-0.2,7.8l-0.4,15.6l-0.4,15.6l-0.2,7.8c0,0.8,0,1.6,0,2.4
			l-16.2,7.8l-10.7,5.1l-10.7,5.3l-21.3,10.6c-1.8,0.9-3.5,1.8-5.3,2.7l-5.3,2.7l-8.3,4.3l-4.1-2.4l-6.9-3.9l-13.8-7.9l-13.9-7.7
			c-2.3-1.3-4.7-2.5-7-3.8c-2.3-1.2-4.7-2.5-7-3.7l26.1,17.9c8.7,5.9,17.4,12,26.1,17.8l0.3,0.2l0.3-0.1l87-38.5l0.5-0.2l0-0.5
			l1.2-31.2c0.4-10.4,0.8-20.8,1.2-31.2l2-62.4l0-0.9L2292,1031.3z"/>
		<polygon fill="#C7B299" points="2171.7,1357.6 2075.2,1273.6 1849.4,1443.7 2128.5,1701 2363.9,1542 		"/>
		<path fill="#FFAD75" d="M2250.2,1349.9c-60.5-0.3-128.3,49.5-77.1,80.9c0,0-6.4,30.1,24.6,22.9c0,0,4.8,17,23.4,7.1
			c0,0,2.9,11.1,17.2,4.9c14.2-6.2,8.5-26.6,21-27.7c12.6-1.1,43.7,14.7,64-33.5C2323.2,1404.6,2310.3,1353.6,2250.2,1349.9z"/>
		<path fill="#C28258" d="M2252.4,1401.1c0,0-0.3,0.2-0.8,0.5c-0.5,0.3-1.2,0.9-2.1,1.6c-1.8,1.4-4.4,3.4-7.3,6
			c-2.9,2.6-6.1,5.9-9,9.7c-3,3.9-5.6,8.3-7.5,13.1c-2,4.8-3.2,9.8-3.5,14.7c-0.2,2.4-0.1,4.8,0.1,7c0.2,2.2,0.6,4.3,1.3,6.1
			c0.7,1.8,1.6,3.4,2.6,4.5c1,1.2,2.2,2,3.2,2.5c1,0.5,1.9,0.8,2.5,0.9c0.6,0.1,0.9,0.1,0.9,0.1s-0.1,0-0.2,0.1
			c-0.2,0-0.4,0.1-0.7,0.1c-0.6,0-1.6,0.1-2.9-0.2c-1.2-0.3-2.7-0.9-4.2-2.1c-0.4-0.3-0.7-0.6-1.1-1c-0.2-0.2-0.3-0.2-0.5-0.5
			c-0.2-0.2-0.3-0.4-0.5-0.6c-0.7-0.8-1.3-1.7-1.8-2.7c-1.1-2-1.9-4.3-2.4-6.7c-0.5-2.4-0.9-5-0.8-7.7c0-2.7,0.2-5.5,0.8-8.2
			c0.5-2.8,1.4-5.5,2.4-8.1c1.1-2.6,2.3-5.2,3.9-7.6c0.4-0.6,0.7-1.1,1.1-1.7c0.4-0.6,0.8-1.1,1.2-1.7c0.8-1.1,1.6-2.1,2.5-3.1
			c1.7-2,3.6-3.7,5.4-5.2c0.9-0.8,1.8-1.5,2.7-2.2c0.9-0.6,1.8-1.2,2.6-1.8c1.7-1.1,3.3-2,4.8-2.8c1.5-0.8,2.8-1.3,3.9-1.8
			c1.1-0.5,2-0.7,2.6-1C2252,1401.2,2252.4,1401.1,2252.4,1401.1L2252.4,1401.1z"/>
		<path fill="#C28258" d="M2224.8,1382.7c0,0-1.1,1-3.2,2.7c-1,0.9-2.1,2-3.4,3.3c-0.7,0.6-1.3,1.4-2,2.2c-0.7,0.8-1.4,1.5-2.1,2.5
			c-0.7,0.9-1.4,1.8-2.2,2.8c-0.7,1-1.4,2-2.1,3.1c-0.8,1.1-1.4,2.2-2.1,3.4c-0.3,0.6-0.7,1.2-1,1.8c-0.3,0.6-0.6,1.2-0.9,1.9
			c-1.3,2.5-2.4,5.2-3.4,8c-0.4,1.4-1,2.8-1.4,4.2c-0.4,1.4-0.8,2.9-1.1,4.4c-0.3,1.5-0.6,2.9-0.9,4.4c-0.2,1.5-0.4,3-0.6,4.4
			c-0.1,1.5-0.2,2.9-0.3,4.4c-0.1,1.4,0,2.9,0,4.3c0,1.4,0.2,2.8,0.2,4.1c0.1,1.4,0.3,2.7,0.5,3.9c0.3,2.6,0.8,5,1.6,7.1
			c0.8,2.1,1.8,3.9,3,5.2c1.2,1.3,2.7,2.1,3.9,2.5c1.2,0.4,2.3,0.5,3,0.4c0.4,0,0.6-0.1,0.8-0.1c0.2,0,0.3-0.1,0.3-0.1
			c0,0-0.3,0.2-1,0.5c-0.7,0.2-1.9,0.5-3.3,0.3c-1.5-0.2-3.3-0.8-5-2.1c-1.7-1.3-3.3-3.3-4.4-5.6c-1.1-2.3-2-4.8-2.6-7.5
			c-0.7-2.7-1.2-5.5-1.5-8.5c-0.1-1.5-0.2-3-0.2-4.6c0-1.6,0-3.1,0.1-4.7c0.2-1.6,0.3-3.2,0.5-4.8c0.3-1.6,0.6-3.2,0.9-4.7
			c0.4-1.6,0.8-3.1,1.3-4.7c0.4-1.5,1.1-3,1.6-4.5c0.5-1.5,1.3-2.9,1.9-4.3c0.6-1.4,1.4-2.7,2.2-4c0.7-1.3,1.5-2.6,2.3-3.7
			c0.8-1.2,1.6-2.3,2.5-3.4c0.9-1,1.7-2.1,2.6-3c0.9-0.9,1.8-1.8,2.6-2.6c1.7-1.6,3.4-3,5-4.1c1.6-1.1,3-2.1,4.2-2.7
			c1.2-0.7,2.2-1.1,2.8-1.4C2224.4,1382.9,2224.8,1382.7,2224.8,1382.7L2224.8,1382.7z"/>
		<path fill="#C28258" d="M2205.1,1371.2c0,0-0.1,0-0.2,0c-0.2,0-0.4,0-0.7,0.1c-0.6,0.2-1.3,0.7-2,1.6c-1.4,1.8-3.3,4.3-5.7,7.4
			c-4.7,6.1-10.6,14.6-14.9,24c-1.1,2.3-2.1,4.7-3,7c-0.9,2.4-1.6,4.7-2.3,7.1c-1.3,4.6-1.9,9.1-2.1,12.9c-0.2,3.8-0.1,7.1,0.1,9.3
			c0.1,1.1,0.2,2,0.3,2.6c0.1,0.6,0.1,0.9,0.1,0.9s-0.1-0.3-0.4-0.9c-0.2-0.6-0.7-1.4-1-2.5c-0.4-1.1-0.8-2.5-1.2-4.1
			c-0.2-0.8-0.4-1.7-0.5-2.6c-0.1-0.9-0.3-1.9-0.3-2.9c-0.2-2-0.3-4.3-0.2-6.6c0.1-2.3,0.3-4.8,0.9-7.3c0.5-2.5,1-5.1,1.9-7.7
			c0.4-1.2,0.9-2.6,1.4-3.9l0.7-1.8l0.9-1.9c1.2-2.4,2.4-4.8,3.8-7.1c1.4-2.3,2.9-4.4,4.4-6.4c1.5-2,3.1-3.8,4.6-5.5
			c0.8-0.8,1.5-1.7,2.2-2.4c0.8-0.7,1.5-1.5,2.2-2.2c1.4-1.4,2.8-2.6,4-3.6c1.2-1.1,2.3-1.9,3.3-2.6c1-0.8,2-1.2,2.7-1.3
			C2204.8,1370.9,2205.1,1371.1,2205.1,1371.2L2205.1,1371.2z"/>
		<path fill="#E6E6E6" d="M2383.5,753c0,0,233.8,148.7,281.4,292.1c47.6,143.4-311.6,417.2-311.6,417.2l-96.8-144.9l228.6-229.7
			l-114.4-83.6C2370.9,1004.2,2276.7,819.6,2383.5,753z"/>
		<path fill="#B3B3B3" d="M2530,1037.6l-17.4,17.3l-17.2,17.4l-8.6,8.7l-4.2,4.4l-4.3,4.3c-5.7,5.8-11.6,11.4-17.4,17.1l-17.5,17
			l-17.6,16.9c-5.9,5.6-11.8,11.3-17.6,16.9l-17.6,16.9l-17.7,16.9l-17.6,17l-35.2,33.9c-5.9,5.6-11.7,11.3-17.5,17l-17.5,17.1
			l-35.1,34.1l-5.6,5.5l4.4,6.6c2,3,4,6,6.1,9l6.1,9l12.2,18.1l24.4,36.1c4,6,8.2,12,12.3,18l12.4,17.9l24.7,35.9l5.1,7.4l6.6-5.6
			l48.3-40.9l5-4.2l-3.9-4.9c-4.2-5.3-8.5-10.5-12.8-15.7l-12.8-15.7l-12.8-15.7l-13-15.6l-13-15.6c-4.3-5.2-8.7-10.4-13.1-15.5
			c-4.4-5.2-8.7-10.4-13.2-15.5l-13.3-15.4l49,64.7l24.6,32.3l24.3,31.8l-48.1,38.8l-95.6-143.6c23.1-22.6,46.1-45.4,69-68.1
			c23.2-23,46.3-46,69.3-69.1l34.4-34.8l17.1-17.5c5.7-5.9,11.3-11.7,17-17.6c5.6-6,11.2-11.9,16.7-17.9c5.5-6,10.8-12.2,16.3-18.3
			L2530,1037.6L2530,1037.6z"/>
		<circle fill="#4A5B63" cx="2360.5" cy="1422.1" r="12.9"/>
		<circle fill="#4A5B63" cx="1384.1" cy="1014.6" r="12.9"/>
		<path fill="#B3B3B3" d="M2667.2,1052.5c-1.5-4.4-3.5-8.4-5.7-12c-0.6-0.9-1.1-1.7-1.7-2.6c-0.6-0.9-1.2-1.7-1.8-2.5
			c-1.2-1.6-2.4-3.1-3.6-4.5c-2.4-2.8-4.8-5.2-6.9-7.2c-2.2-2-4.1-3.7-5.7-5.1c-3.2-2.8-5.1-4.3-5.1-4.3l0,0c0,0,0.3,0.6,1,1.5
			c0.7,1,1.6,2.5,2.8,4.2c1.2,1.8,2.6,4,4.3,6.4c1.6,2.5,3.4,5.2,5.1,8.2c0.8,1.5,1.7,3,2.5,4.7c0.2,0.4,0.4,0.8,0.6,1.2l0.3,0.6
			l0.2,0.3l0.1,0.2l0,0.1c0.1,0.1-0.1-0.1-0.1-0.1l0,0c0.4,0.9,0.9,1.9,1.3,2.8c0.3,0.8,0.6,1.7,1,2.5c0.3,0.9,0.6,1.8,1,2.7
			c0.3,0.9,0.6,1.9,0.9,2.8c0.3,1,0.5,1.9,0.8,2.9c0.4,2,0.9,3.9,1.3,5.9c0.2,1,0.3,2,0.4,3c0.2,1,0.3,2,0.4,3.1
			c0.3,4.1,0.5,8.3,0.1,12.5c-0.1,1-0.2,2.1-0.3,3.1l-0.2,1.5l-0.1,0.4l0,0.2l0,0l-0.2,0.8c-0.2,1.2-0.5,2.4-0.7,3.5
			c-0.2,0.9-0.4,1.9-0.7,2.8c-0.2,0.9-0.6,2-0.8,3c-0.2,1-0.6,2-0.9,3c-0.6,2-1.4,3.9-2.1,5.9c-1.6,3.9-3.3,7.6-5,11.2
			c-0.9,1.8-1.8,3.5-2.6,5.2c-0.4,0.8-0.9,1.7-1.3,2.5c-0.4,0.8-0.9,1.6-1.3,2.4c-1.7,3.2-3.3,6.1-4.7,8.7c-1.4,2.6-2.6,5-3.7,6.9
			c-1,1.9-1.8,3.5-2.3,4.5c-0.5,1.1-0.8,1.7-0.8,1.7s1.7-1.8,4.6-4.8c1.5-1.5,3.2-3.4,5.2-5.6c2-2.2,4.2-4.7,6.4-7.6
			c2.3-2.8,4.6-6,7-9.5c2.3-3.5,4.7-7.3,6.7-11.4c2-4.1,3.9-8.5,5.3-13.1c0.3-1.2,0.7-2.4,1-3.5c0.3-1.2,0.5-2.4,0.8-3.5
			c0.5-2.4,0.8-4.9,1.1-7.3C2671.7,1071.1,2670.2,1061.2,2667.2,1052.5z"/>
		<path fill="#4A5B63" d="M2011.2,1314l-33.9,26c-4.6-13.5-12.3-24.1-29.2-23.4c-14.8,0.6-27.2,9.4-23.8,25.6
			c3,14.2,11.9,17.7,23.9,20.2l-21.4,16.4c1.3,18.5,23.8,19.2,23.8,19.2l76.1-57.6C2026.8,1340.4,2008.2,1324,2011.2,1314z"/>
		<circle fill="#E6E6E6" cx="1947.4" cy="1338.1" r="8.6"/>
		<path fill="#B3B3B3" d="M1359.3,893.2c0,0,4.8,2.1,13.3,5.8c4.2,1.8,9.4,4.1,15.3,6.7c5.9,2.5,12.5,5.5,19.8,8.7
			c14.5,6.4,31.3,13.9,49.4,22c9,4,18.4,8.1,27.9,12.4c9.5,4.2,19.2,8.4,28.8,12.8c19.2,8.6,38.5,17.3,56.5,25.4
			c9,4,17.8,7.9,26.1,11.5c4.2,1.8,8.2,3.6,12.1,5.2c3.9,1.6,7.8,3.2,11.3,5.1c7.1,3.6,13,7.9,17.9,12.1c4.9,4.2,8.7,8.4,11.5,12
			c2.9,3.6,4.8,6.7,6.1,8.8c1.2,2.1,1.8,3.4,1.8,3.4s-0.7-1.1-2.1-3.1c-1.5-2-3.7-4.8-6.9-8.1c-3.1-3.3-7.2-7.1-12.3-10.7
			c-5.1-3.6-11.1-7.3-18.1-10.2c-3.4-1.5-7.1-2.7-11.3-4c-4.1-1.3-8.3-2.8-12.6-4.3c-4.3-1.4-8.7-3.1-13.2-4.8
			c-4.5-1.7-9-3.4-13.7-5.1c-9.3-3.5-18.7-7.5-28.4-11.3c-4.8-1.9-9.6-4-14.5-6.1c-4.8-2.1-9.7-4.2-14.5-6.3
			c-9.7-4.1-19.3-8.6-28.7-13c-4.7-2.2-9.4-4.3-14-6.5c-4.6-2.2-9.1-4.5-13.5-6.6c-4.4-2.2-8.8-4.3-13.1-6.4
			c-4.3-2.1-8.4-4.3-12.4-6.4c-4-2.1-8-4.1-11.7-6.1c-3.8-2-7.4-4-10.9-5.9c-3.5-1.9-6.8-3.7-10-5.5c-3.1-1.8-6.1-3.5-8.9-5.1
			c-2.8-1.6-5.4-3.1-7.8-4.5c-2.4-1.4-4.6-2.8-6.6-4c-4-2.4-7.1-4.4-9.2-5.7C1360.4,894,1359.3,893.3,1359.3,893.2L1359.3,893.2z"/>
		<path fill="#B3B3B3" d="M1785.1,1046l-10.8,8.5l-10.8,8.5l-10.7,8.6c-7.2,5.7-14.3,11.5-21.4,17.2c-7.1,5.8-14.2,11.5-21.3,17.3
			l-21.2,17.4c-7.1,5.8-14.1,11.7-21.1,17.5l-21,17.6c-6.1,5.1-12.2,10.3-18.3,15.5l-30.8-15.9l-17-8.6l-17-8.6l-17-8.6
			c-5.7-2.9-11.3-5.7-17-8.5l-34.1-16.9l-34.2-16.7c-5.7-2.8-11.4-5.6-17.1-8.3l-17.2-8.2c-4.8-2.3-9.6-4.6-14.4-6.8l2.2,0.9l3.6-7
			c0.3-0.5,0.4-0.8,0.5-1.1l0.4-1l0.8-1.8c0.5-1.2,0.9-2.4,1.4-3.6c0.9-2.4,1.6-4.8,2.3-7.2c0.7-2.4,1.3-4.8,1.9-7.2
			c0.5-2.4,1-4.8,1.5-7.2c0.4-2.4,0.8-4.8,1.2-7.3c0.4-2.4,0.6-4.8,0.9-7.3c0.3-2.4,0.5-4.8,0.6-7.3c0.1-2.4,0.2-4.8,0.3-7.3
			c0.1-2.4,0.1-4.8,0.1-7.2c0-2.4-0.1-4.8-0.1-7.2c-0.2-4.8-0.6-9.6-1.1-14.3c-0.2-2.4-0.5-4.8-0.9-7.1c-0.3-2.4-0.8-4.7-1.1-7.1
			c-0.4-2.3-0.9-4.7-1.4-7c-0.5-2.3-1-4.6-1.6-7l0.5,7l0.4,7c0.1,2.4,0.2,4.7,0.2,7.1c0,2.4,0.1,4.7,0.1,7.1c0,2.4,0,4.7-0.1,7
			c0,2.3-0.2,4.7-0.3,7c-0.1,2.3-0.2,4.7-0.4,7c-0.2,2.3-0.4,4.7-0.6,7c-0.2,2.3-0.5,4.7-0.8,7c-0.3,2.3-0.6,4.6-1,7
			c-0.4,2.3-0.8,4.6-1.3,6.9c-0.5,2.3-1,4.6-1.5,6.9c-1.1,4.6-2.4,9.1-3.8,13.5c-0.7,2.2-1.5,4.4-2.4,6.6c-0.8,1.9-1.6,3.8-2.5,5.6
			l-33.5-15.5l-8.6-4l-8.6-3.9l-16.4-7.4c0.8-2.4,1.4-4.8,2.1-7.3c0.7-2.7,1.4-5.4,2.1-8.1c0.6-2.7,1.3-5.4,1.8-8.2
			c0.6-2.7,1.2-5.5,1.7-8.2c0.6-2.7,1-5.5,1.5-8.2c0.5-2.7,1-5.5,1.4-8.3c0.4-2.8,0.9-5.5,1.2-8.3l1.1-8.3c0.3-2.8,0.6-5.5,0.9-8.3
			l0.4-4.2l0.3-4.2l0.7-8.3l0.4-8.4c0.1-2.8,0.3-5.6,0.3-8.4l0.2-8.4c0.1-2.8,0-5.2,0-8l-0.1-8h-0.1c-0.5,2-0.8,5.2-1.3,8
			c-0.5,2.8-0.7,5.4-1.1,8.1c-0.4,2.8-0.9,5.4-1.2,8.2c-0.3,2.7-0.8,5.4-1.2,8.2l-1.3,8.2l-1.3,8.2l-0.7,4.1l-0.8,4.1
			c-0.5,2.7-1,5.4-1.5,8.1l-1.5,8.1c-0.5,2.7-1.1,5.4-1.7,8.1c-0.5,2.7-1.2,5.4-1.8,8c-0.6,2.7-1.2,5.3-1.8,8l-1,4l-1,4
			c-0.6,2.6-1.3,5.3-2.1,7.9c-0.7,2.6-1.5,5.2-2.2,7.8c-0.4,1.3-0.8,2.6-1.2,3.8c-0.4,1.2-0.8,2.6-1.2,3.6l-2.7,7.8l7.7,3.6
			c2.8,1.3,5.7,2.7,8.5,4l8.6,4c2.9,1.3,5.7,2.7,8.6,3.9l4.7,2.1c7.5,4.3,15,8.5,22.4,12.7c11.1,6.1,22.2,12.4,33.3,18.4l16.7,9.1
			c5.6,3.1,11.2,6.1,16.8,9l33.6,18l33.7,17.7c5.6,3,11.2,5.9,16.9,8.8l16.9,8.7l16.9,8.7l16.9,8.7l34,17.2l3.1,1.6l2.6-2.2
			c6.9-6,13.9-11.9,20.7-18l20.6-18.1c6.9-6,13.8-12,20.6-18.1l20.5-18.2c6.8-6.1,13.6-12.2,20.4-18.4c6.8-6.1,13.6-12.3,20.3-18.5
			l10.1-9.3l10.1-9.3l10-9.4l10-9.4L1785.1,1046z"/>
	</g>
	<path opacity="0.3" fill="#FF931E" d="M1241.3,263.2c0,0-2.9,0.1-8.4,0.4c-5.4,0.3-13.4,0.6-23.4,1.1c-3.3,0.6-6.9-2.2-10.7,0.5
		c-3.8,1.4-7.8-2.9-12,0.6c-4.2,2.3-8.6-2.4-13.2-0.1c-4.6-1.8-9.4,1.3-14.3,1.4c-5,10.2-10.1-3.4-15.4,0.6
		c-5.3,9.7-10.7,5.3-16.3,0.9c-5.6,2.5-11.3,0.6-17.1,0.8c-5.8-2.7-11.8,1.2-17.9,0.8c-2.4-2.7-4.7,5.7-7.1,0.4
		c-2.4-1.5-4.8,1.1-7.2,0.3c-2.4,0.6-4.9-1.9-7.3,0.3c-2.5-2.8-4.9,2.2-7.4,0.3c-5-1.9-10-2-15,0.5c-5.1,0.1-10.1,1.1-15.3,0.9
		c-10.3,2.1-20.7,2.9-31.2,1.5c-10.5,2.9-21.1-4.5-31.7,1.5c-5.3-2.2-10.6-5.6-15.9-6.5c-5.3-0.3-10.6-0.4-15.9,8
		c-5.3,9.4-10.6,11.5-15.9,9.1c-5.3-1.7-10.6-5.8-15.8-7.6c-5.2-6.5-10.5-1.9-15.7-2.4c-5.2,0.2-10.4,1.8-15.5,3.8
		c-5.1,0.5-10.2,1.1-15.3,0.6c-5.1,0.3-10.1,0.6-15,0.8c-9.9,0.5-19.6,0.9-29.1,1.4c-10.6,0.5-20.9,2.8-30.8,1.4
		c-9.9,2.2-19.3-3.1-28.3,1.3c-9,1.7-17.4,5.4-25.3,1.2c-7.9,1.3-15.2-2.6-21.8,1c-6.6,0.3-12.6,0.6-17.8,0.8
		c-15.7,0.7-24.7,1.2-24.7,1.2l-7.3-155.8l573.8-26.9L1241.3,263.2z"/>
</g>
</svg>
