<?xml version="1.0" encoding="utf-8"?>
<!-- Generator: Adobe Illustrator 19.0.0, SVG Export Plug-In . SVG Version: 6.00 Build 0)  -->
<svg version="1.1" id="Layer_3" xmlns="http://www.w3.org/2000/svg" xmlns:xlink="http://www.w3.org/1999/xlink" x="0px" y="0px"
	 width="1400px" height="980px" viewBox="0 0 1400 980" enable-background="new 0 0 1400 980" xml:space="preserve">
<g id="XMLID_1_">
	<rect id="XMLID_2_" fill="#3EA0C3" width="1400" height="980"/>
	<text id="XMLID_40_" transform="matrix(1 0 0 1 754.4845 126.6976)"><tspan x="0" y="0" fill="#FFFFFF" font-family="'TitilliumWeb-Bold'" font-size="58.3881px">PEDI</tspan><tspan x="120.7" y="0" fill="#FFFFFF" font-family="'TitilliumWeb-Bold'" font-size="58.3881px" letter-spacing="-2">A</tspan><tspan x="153.7" y="0" fill="#FFFFFF" font-family="'TitilliumWeb-Bold'" font-size="58.3881px">TRICIAN</tspan></text>
	<rect id="XMLID_42_" x="676.8" y="150.1" fill="none" width="516.7" height="73.7"/>
	<text id="XMLID_41_" transform="matrix(1 0 0 1 679.9581 163.305)"><tspan x="0" y="0" fill="#FFFFFF" font-family="'MyriadPro-Regular'" font-size="18.56px">L</tspan><tspan x="8.5" y="0" fill="#FFFFFF" font-family="'MyriadPro-Regular'" font-size="18.56px">o</tspan><tspan x="18.7" y="0" fill="#FFFFFF" font-family="'MyriadPro-Regular'" font-size="18.56px">r</tspan><tspan x="24.6" y="0" fill="#FFFFFF" font-family="'MyriadPro-Regular'" font-size="18.56px">em ipsum dolor sit ame</tspan><tspan x="205.9" y="0" fill="#FFFFFF" font-family="'MyriadPro-Regular'" font-size="18.56px">t</tspan><tspan x="212" y="0" fill="#FFFFFF" font-family="'MyriadPro-Regular'" font-size="18.56px">, </tspan><tspan x="219.8" y="0" fill="#FFFFFF" font-family="'MyriadPro-Regular'" font-size="18.56px">c</tspan><tspan x="228" y="0" fill="#FFFFFF" font-family="'MyriadPro-Regular'" font-size="18.56px">onse</tspan><tspan x="265.1" y="0" fill="#FFFFFF" font-family="'MyriadPro-Regular'" font-size="18.56px">c</tspan><tspan x="273.7" y="0" fill="#FFFFFF" font-family="'MyriadPro-Regular'" font-size="18.56px">t</tspan><tspan x="279.7" y="0" fill="#FFFFFF" font-family="'MyriadPro-Regular'" font-size="18.56px">etur adipiscing eli</tspan><tspan x="416.7" y="0" fill="#FFFFFF" font-family="'MyriadPro-Regular'" font-size="18.56px">t</tspan><tspan x="422.8" y="0" fill="#FFFFFF" font-family="'MyriadPro-Regular'" font-size="18.56px">. </tspan><tspan x="430.5" y="0" fill="#FFFFFF" font-family="'MyriadPro-Regular'" font-size="18.56px">P</tspan><tspan x="440.1" y="0" fill="#FFFFFF" font-family="'MyriadPro-Regular'" font-size="18.56px">r</tspan><tspan x="446" y="0" fill="#FFFFFF" font-family="'MyriadPro-Regular'" font-size="18.56px">oin hen</tspan><tspan x="504.7" y="0" fill="#FFFFFF" font-family="'MyriadPro-Regular'" font-size="18.56px">-</tspan><tspan x="-2" y="22.3" fill="#FFFFFF" font-family="'MyriadPro-Regular'" font-size="18.56px">d</tspan><tspan x="8.5" y="22.3" fill="#FFFFFF" font-family="'MyriadPro-Regular'" font-size="18.56px">r</tspan><tspan x="14.3" y="22.3" fill="#FFFFFF" font-family="'MyriadPro-Regular'" font-size="18.56px">e</tspan><tspan x="23.6" y="22.3" fill="#FFFFFF" font-family="'MyriadPro-Regular'" font-size="18.56px">r</tspan><tspan x="29.8" y="22.3" fill="#FFFFFF" font-family="'MyriadPro-Regular'" font-size="18.56px">it dui quis f</tspan><tspan x="114.9" y="22.3" fill="#FFFFFF" font-family="'MyriadPro-Regular'" font-size="18.56px">r</tspan><tspan x="121" y="22.3" fill="#FFFFFF" font-family="'MyriadPro-Regular'" font-size="18.56px">in</tspan><tspan x="135.7" y="22.3" fill="#FFFFFF" font-family="'MyriadPro-Regular'" font-size="18.56px">g</tspan><tspan x="145.9" y="22.3" fill="#FFFFFF" font-family="'MyriadPro-Regular'" font-size="18.56px">illa rutrum. </tspan><tspan x="233.9" y="22.3" fill="#FFFFFF" font-family="'MyriadPro-Regular'" font-size="18.56px">A</tspan><tspan x="245.2" y="22.3" fill="#FFFFFF" font-family="'MyriadPro-Regular'" font-size="18.56px">liquam ut egestas enim. Nulla eget </tspan><tspan x="136.8" y="44.5" fill="#FFFFFF" font-family="'MyriadPro-Regular'" font-size="18.56px">o</tspan><tspan x="147" y="44.5" fill="#FFFFFF" font-family="'MyriadPro-Regular'" font-size="18.56px">r</tspan><tspan x="152.8" y="44.5" fill="#FFFFFF" font-family="'MyriadPro-Regular'" font-size="18.56px">ci quis sapien </tspan><tspan x="260.5" y="44.5" fill="#FFFFFF" font-family="'MyriadPro-Regular'" font-size="18.56px">t</tspan><tspan x="266.5" y="44.5" fill="#FFFFFF" font-family="'MyriadPro-Regular'" font-size="18.56px">empor iaculi</tspan><tspan x="362.6" y="44.5" fill="#FFFFFF" font-family="'MyriadPro-Regular'" font-size="18.56px">s</tspan><tspan x="369.7" y="44.5" fill="#FFFFFF" font-family="'MyriadPro-Regular'" font-size="18.56px">. </tspan></text>
	<g id="XMLID_35_">
		<path id="XMLID_34_" fill="#007898" d="M1211.1,527.2c0,152.4-118.8,355.9-271.2,355.9S659.2,679.6,659.2,527.2
			s128.2-263.6,280.6-263.6S1211.1,374.8,1211.1,527.2z"/>
	</g>
	<g id="XMLID_3_">
		<defs>
			<rect id="XMLID_36_" x="99" y="91" width="400" height="889"/>
		</defs>
		<clipPath id="XMLID_100_">
			<use xlink:href="#XMLID_36_"  overflow="visible"/>
		</clipPath>
		<g id="XMLID_105_" clip-path="url(#XMLID_100_)">
			<path id="XMLID_282_" d="M267.4,1191.6c-7.4-2.7-17.5-7-24.8-2.7c-6.6,3.9-8.3,13.1-13.2,18.7c-6.9,7.9-19.3,14-28,19.5
				c-14.8,9.5-31,19.2-38.2,35.4c-1.2,2.8-2.1,6.3,0,8.6c1.5,1.7,4.1,1.9,6.4,1.9c23.6-0.2,47.2-6.5,67.9-18.1
				c7-3.9,13.7-8.5,21.3-10.9c6.1-1.9,13.2-2.9,16.8-8.2c2.7-4,2.5-9.2,2-14c-0.7-7.1-1.6-14.1-2.9-21.1c-0.4-2.2-0.9-4.6-2.4-6.3
				C271.1,1193.1,269.2,1192.3,267.4,1191.6z"/>
			<path id="XMLID_281_" d="M347.6,1191.6c7.4-2.7,17.5-7,24.8-2.7c6.6,3.9,8.3,13.1,13.2,18.7c6.9,7.9,19.3,14,28,19.5
				c14.8,9.5,31,19.2,38.2,35.4c1.2,2.8,2.1,6.3,0,8.6c-1.5,1.7-4.1,1.9-6.4,1.9c-23.6-0.2-47.2-6.5-67.9-18.1
				c-7-3.9-13.7-8.5-21.3-10.9c-6.1-1.9-13.2-2.9-16.8-8.2c-2.7-4-2.5-9.2-2-14c0.7-7.1,1.6-14.1,2.9-21.1c0.4-2.2,0.9-4.6,2.4-6.3
				C343.9,1193.1,345.8,1192.3,347.6,1191.6z"/>
			<path id="XMLID_280_" fill="#EBA29B" d="M339.2,412.4h-16.1l-18.1,0l-29,0h-16.9l1.6-5.9l1.8-6.8c0,0-0.1-0.4,0-1.1v0
				c0.4-1.8,2.6-5,13.6-5.3c0.9,0,1.8,0,2.8,0c3.8,0.1,8.4-0.2,13.3-0.4c3-0.2,6.1-0.4,9.3-0.6c5.4-0.3,10.8-0.5,15.7-0.3
				c1,0.1,2,0.1,3,0.2c1.4,0.1,2.8,0.3,4.1,0.5c0,0,0,0,0,0c2.3,0.4,4.3,0.9,6,1.7c2.8,1.2,4.7,3,5.4,5.5l2.4,9L339.2,412.4z"/>
			<path id="XMLID_205_" fill="#004B73" d="M385.1,1188.5c-17.7,11.5-52.8,12.9-52.8,12.9s1.4-59.2,2.1-129.3
				c15.5-8.8,30.4-19.2,45.1-30C378.2,1101.8,379.2,1154.5,385.1,1188.5z"/>
			<path id="XMLID_239_" fill="#004B73" d="M229,1117.3c14.8-5.7,29.6-11.6,44.3-17.6c2.6,59.1,5.2,105.5,5.2,105.5
				s-15.5,1.9-50.2-9.5C230.6,1181.5,230.5,1152.7,229,1117.3z"/>
			<path id="XMLID_248_" fill="#003B5E" d="M206,834.8c-4.6-35.8-5.9-96.4-5.9-96.4s60.5-9.5,195,0c-4.6,86.2-13.4,204.7-15.6,303.6
				c-14.7,10.8-29.6,21.2-45.1,30c1-95.5,0.7-211.1-6-224.4c-9.6-19.2-46.4-25.7-56.9,10.1c-6.5,22-2.4,147.9,1.8,241.9
				c-14.7,6.1-29.5,11.9-44.3,17.6C224.8,1016.4,209.4,861.3,206,834.8z"/>
			<path id="XMLID_226_" fill="#EBA29B" d="M399.6,617.6c0.2,18.6,0.7,38,1.2,55.6c-51.4,30.3-104.9,55.6-160.3,75.1
				c-24.7-2.4-43.8-6.8-49.2-13.2c-0.3-0.4-0.6-0.8-0.9-1.2c0,0,2.9-58.1,4.7-109.1C263.6,624.9,331.8,625.4,399.6,617.6z"/>
			<path id="XMLID_237_" fill="#FAC1B7" d="M196.2,554.4c-1.1-18.1-7.9-63.8-10.1-90.9c-0.5-5.9-0.7-10.9-0.6-14.6
				c0.1-6.8,4.4-12.7,10.7-14.9l68.5-23.6l69.2,0.8l60.2,15.2c6.6,1.4,11.6,6.9,12.4,13.8c0.5,3.7,2.4,8,2,16.2
				c-1.4,27.5-6.7,74.3-8.1,101.5c-0.7,12.3-0.8,29-0.7,47.2c0,4.1,0.1,8.3,0.1,12.5c-67.8,7.9-136,7.3-204.4,7.1
				c0.6-17.3,1.1-33.8,1.2-47C196.6,567.5,196.5,559.3,196.2,554.4z"/>
			<path id="XMLID_206_" fill="#FAC1B7" d="M400.8,673.1c1,33.9,2.2,60.7,2.2,60.7c-0.2,0.3-0.5,0.5-0.7,0.8
				c-14.1,14.1-103.5,19.3-161.7,13.6C295.9,728.8,349.4,703.5,400.8,673.1z"/>
			<path id="XMLID_277_" fill="#414042" d="M403,752.6c-7,9.1-44.9,14.7-86.9,16.3c-12.8,0.5-26,0.6-38.8,0.3
				c-42.8-1-81.2-6.3-86.9-16.5c0,0,0.3-6.7,0.9-17.6c7.9,9.4,45,14.4,86,15.3c12.8,0.3,26,0.2,38.8-0.3
				c40.7-1.5,77.6-6.8,86.1-15.5C402.7,745.7,403,752.6,403,752.6z"/>
			<path id="XMLID_276_" fill="#EBA29B" d="M347.3,414.1l-13.5-2.9l-69.2-0.9l-68.5,24.4c-6.3,2.2-10.5,8.4-10.7,15.4
				c-0.4,21.4,9.4,86.3,10.7,109.2c0.9,14.5-0.4,57.2-2,98C262.2,591.1,307.4,501.6,347.3,414.1z"/>
			<path id="XMLID_275_" fill="#FCBA7C" d="M339.2,412.4c0,0-23.9,27.7-39.7,26.5c-0.7-0.1-1.3-0.1-1.9-0.3
				c-2.8-0.7-5.6-1.6-8.2-2.8l-1.6-0.7c-1-0.5-2-1-3-1.5c-0.6-0.3-1.2-0.6-1.7-1c-0.9-0.5-1.8-1.1-2.7-1.6c0,0,0,0,0,0
				c-0.1-0.1-0.2-0.1-0.2-0.2c-0.5-0.3-0.9-0.6-1.4-0.9c-2.4-1.6-4.6-3.2-6.6-4.8c-0.4-0.3-0.8-0.6-1.2-1c-1.5-1.3-3-2.5-4.2-3.8
				c-4.3-4.1-7-7.4-7.4-7.9l0,0c0,0,0,0,0,0c0,0,0,0,0,0s4-1.8,8.8-6.9c0.1-0.2,0.3-0.3,0.5-0.5c0.4-0.5,0.9-1,1.3-1.5
				c1.8-2.1,3.6-4.7,5.3-7.8c0.4-0.7,0.8-1.5,1.1-2.4c0.3-0.6,0.5-1.3,0.7-2c4.4-14.5,2.2-42.6,2.2-42.6l40.1-5.9
				c0,0-0.2,15.6,0,29.7c0,0.6,0,1.3,0,1.9c0,0.6,0,1.3,0,2c0,0.6,0,1.2,0.1,1.7c0,1.1,0.1,2.1,0.1,3.1c0,0.5,0,1,0.1,1.5
				c0,0.1,0,0.2,0,0.3c0,0.3,0,0.6,0,0.9c0.1,1.4,0.1,2.7,0.2,3.8c0.1,0.8,0.1,1.6,0.2,2.3c0.1,0.7,0.2,1.5,0.4,2.2
				C323.2,403.5,339.2,412.4,339.2,412.4z"/>
			<path id="XMLID_274_" fill="#EEB78F" d="M319.7,387.5c-0.8,1.4-1.6,2.9-2.4,4.3c-3.9,7-8.1,13.8-12.3,20.6
				c-3.6,5.7-7.3,11.2-11,16.8c-1.5,2.2-3.1,4.5-4.6,6.7l-1.6-0.7c-1-0.5-2-1-3-1.5c-0.6-0.3-1.2-0.6-1.7-1
				c-0.9-0.5-1.8-1.1-2.7-1.7c-0.1-0.1-0.2-0.1-0.2-0.2c-0.5-0.3-0.9-0.6-1.4-0.9c-2.4-1.6-4.5-3.2-6.6-4.8c-0.4-0.3-0.8-0.6-1.2-1
				c-1.5-1.3-2.9-2.5-4.2-3.8c-4.3-4.1-7-7.4-7.4-7.9l0,0c0,0,0,0,0,0c0,0,0,0,0,0s4-1.8,8.8-6.9c0.1-0.2,0.3-0.3,0.5-0.5
				c0.4-0.5,0.9-1,1.3-1.5c1.8-2.1,3.6-4.7,5.3-7.8c0.4-0.7,0.8-1.5,1.1-2.4c0.3-0.6,0.5-1.3,0.7-2c4.4-14.5,2.2-42.6,2.2-42.6
				l40.1-5.9c0,0-0.2,15.6,0,29.7c0,0.6,0,1.3,0,1.9c0,0.6,0,1.3,0,2c0,0.6,0,1.2,0.1,1.7c0,1.1,0.1,2.1,0.1,3.1c0,0.5,0,1,0.1,1.5
				c0,0.1,0,0.2,0,0.3c0,0.3,0,0.6,0,0.9C319.5,385,319.6,386.3,319.7,387.5z"/>
			<path id="XMLID_273_" fill="#F0CDB6" d="M319.9,389.8c-0.1-0.7-0.1-1.5-0.2-2.3c-9.3,16.8-19.6,32.8-30.4,48.3
				c2.6,1.1,5.3,2.7,8.2,2.8c17.5,0.5,41.7-26.2,41.7-26.2S321.1,402.4,319.9,389.8z"/>
			<path id="XMLID_272_" fill="#FDC07D" d="M291.2,362.1c1.9,0.1,3.9,0.2,5.9,0.2C295.9,362.3,293.9,362.2,291.2,362.1z"/>
			<path id="XMLID_271_" fill="#4B361B" d="M298.1,362.3L298.1,362.3c0,0-0.2,0-0.6,0C297.7,362.3,297.9,362.3,298.1,362.3z"/>
			<path id="XMLID_270_" fill="#EBA29B" d="M259.1,412.3l3.4-12.8c0,0,12.5,14.2,22.2,20.4c9.7,6.1,14.8,19,14.8,19
				C293.6,439.1,277.8,439.5,259.1,412.3z"/>
			<path id="XMLID_269_" fill="#EBA29B" d="M339.2,412.4C339.2,412.4,339.2,412.4,339.2,412.4c-6.9,10.9-13.9,17.4-20.1,21.2
				c-11.2,7-19.6,5.4-19.6,5.4s0,0,0,0c0-0.1,0.1-0.2,0.1-0.4c0.8-2.2,5.4-13.1,14-18.6c0,0,0.1,0,0.2-0.1c3-1.9,6.4-4.7,9.5-7.5
				c1.5-1.4,2.9-2.7,4.3-4l0.3-0.3c0.8-0.8,1.5-1.5,2.2-2.2c0.2-0.2,0.4-0.4,0.5-0.6c2.4-2.5,4.2-4.5,4.9-5.3
				c0.1-0.1,0.2-0.2,0.3-0.4l2.4,9L339.2,412.4z"/>
			<path id="XMLID_268_" fill="#E6E7E8" d="M259.1,410.4l-64.2,22.5c-6.4,2.2-10.8,8.4-10.9,15.5c-0.4,21.4,9.6,86.6,10.9,109.5
				c0.6,9.3-1.5,53.6-4.7,110.9c24.6-25.9,47.3-53.7,68.8-82.1V410.4z"/>
			<path id="XMLID_207_" fill="#E6E7E8" d="M190.3,668.7c24.6-25.9,47.3-53.7,68.8-82.1v154.9c-24.5,9.2-49.3,17.4-74.4,24.3
				C186.7,731.9,188.6,698.6,190.3,668.7z"/>
			<path id="XMLID_212_" fill="#EFEFF0" d="M259.1,741.5v275.7c-45.8-1.5-84-6.7-89.1-16c0,0,7.8-120,14.7-235.5
				C209.8,758.8,234.6,750.7,259.1,741.5z"/>
			<path id="XMLID_221_" fill="#EFEFF0" d="M339.2,411.3l57.5,14.8c6.7,1.4,11.8,7.2,12.6,14.3c2,17.1-6.2,80.6-8.1,117.3
				c-0.8,15.3,1.4,58.5,4.9,112.3c-22.3,13.4-45.1,25.8-68.2,37.2L339.2,411.3z"/>
			<path id="XMLID_224_" fill="#FFFFFF" d="M406.1,670c8.6,132.1,25.1,327.7,25.1,327.7c-6.5,8.6-45.7,14.5-94.6,21.7l1.3-312.2
				C361,695.8,383.8,683.4,406.1,670z"/>
			<path id="XMLID_265_" fill="#FAC1B7" d="M284.6,419.9c0,0-2.2,5.3-4.4,11.1c0,0,0,0,0,0c-0.3,0.7-0.6,1.5-0.9,2.2
				c-1,2.5-1.9,5-2.6,7c-12.2-14.7-17.3-27.1-17.7-27.8c0,0,0,0,0,0l1.4-5.9l1.9-8v0c1.6,1.9,3.3,3.7,5,5.6c0.3,0.3,0.6,0.6,0.9,0.9
				c2.6,2.7,5.3,5.3,7.6,7.4C280.6,416.6,284.2,419.6,284.6,419.9C284.6,419.9,284.6,419.9,284.6,419.9z"/>
			<path id="XMLID_264_" fill="#FAC1B7" d="M339.2,412.4C339.2,412.4,339.2,412.4,339.2,412.4c-0.3,0.8-5.5,13.2-17.7,27.9
				c-0.6-1.9-1.5-4.3-2.4-6.7c-0.3-0.7-0.5-1.4-0.8-2.1c-0.1-0.2-0.2-0.5-0.3-0.7c-2.2-5.6-4.4-10.8-4.4-10.8s0.1,0,0.2-0.1
				c0.8-0.6,4.6-3.4,9.3-7.5c1.4-1.2,3-2.6,4.5-4l0.3-0.3c0.7-0.7,1.5-1.4,2.2-2.2c0.2-0.2,0.4-0.4,0.6-0.6c1.7-1.7,3.3-3.5,4.9-5.3
				c0.1-0.1,0.2-0.2,0.3-0.4l2.4,9L339.2,412.4z"/>
			<path id="XMLID_263_" fill="#003D61" d="M309.4,432.6c-6.4-1.7-13.3-1.7-20.6,0l-2.1,5.6l5.6,9.8h13.5l5.7-9.8L309.4,432.6z"/>
			<polygon id="XMLID_262_" fill="#003050" points="288.8,432.6 281.9,426.6 279.3,433.2 286.7,438.1 			"/>
			<polyline id="XMLID_261_" fill="#003050" points="309.4,432.6 316.7,427.4 319.4,434.3 311.6,438.1 			"/>
			<path id="XMLID_260_" fill="#003050" d="M305.8,448h-6.7h-6.8l-5.9,92.1c7.9-12.2,16.2-24.5,22.9-37.5L305.8,448z"/>
			<path id="XMLID_259_" fill="#003D61" d="M309.4,502.6c-6.7,13.1-15,25.3-22.9,37.5l-9,139.5l21.7,29.1l21.7-29.1L309.4,502.6z"/>
			<g id="XMLID_258_">
				<path id="XMLID_43_" fill="#D1D3D4" d="M293.5,770.3c-3,0-6,0-8.9-0.1c-1.8,0-3.3-1.9-3.3-4.2v-12.4c0-1.3,0.5-2.5,1.3-3.3
					c0.6-0.6,1.4-0.9,2.1-0.9c7.8,0.2,15.8,0.1,23.9-0.2c0.8,0,1.5,0.3,2.2,0.9c0.8,0.8,1.3,2,1.3,3.3v12.4c0,2.3-1.4,4.1-3.2,4.2
					C303.8,770.1,298.7,770.3,293.5,770.3z M284.7,751.4c-0.3,0-0.5,0.2-0.7,0.3c-0.4,0.4-0.7,1.1-0.7,1.8V766
					c0,1.3,0.7,2.1,1.3,2.2c8,0.2,16.1,0.1,24.2-0.2c0.6,0,1.3-0.9,1.3-2.2v-12.4c0-0.8-0.3-1.4-0.7-1.8c-0.2-0.2-0.4-0.3-0.7-0.3
					C300.6,751.5,292.5,751.6,284.7,751.4C284.7,751.4,284.7,751.4,284.7,751.4z"/>
			</g>
			<g id="XMLID_257_">
				<rect id="XMLID_39_" x="282.3" y="759.2" fill="#D1D3D4" width="11.8" height="1"/>
			</g>
			<path id="XMLID_256_" fill="#F0CDB6" d="M374.3,251.7c0,10.1,1.2,73.8-4.3,91.6c-5.4,17.8-42.8,39.6-69.9,39.9
				c-0.7,0-1.4,0-2.1,0v-69.3c0,0-17-1.5-9-14.2c8-12.7,9.8-28.7,9.8-28.7L298,204l-20.7-19.6L228,195.7c0,0,0,0,0,0
				c16.2-23.8,51.3-25.8,73.3-26.2c22-0.4,63.7,19.5,68.2,25.5C381.1,210.2,374.3,241.6,374.3,251.7z"/>
			<path id="XMLID_255_" fill="#EEB78F" d="M298,313.9v69.3c-0.1,0-0.3,0-0.4,0c-0.1,0-0.2,0-0.3,0c-29.3-2.7-68.2-15.3-72.8-39.9
				c-5.3-28.6-4.4-94.9-4.4-94.9c-2.3-37.8,5.6-49.7,7.8-52.8l49.3-11.3L298,204l0.7,67.1c0,0-1.8,16-9.8,28.7
				C281,312.4,298,313.9,298,313.9z"/>
			<path id="XMLID_254_" fill="#EEB78F" d="M370.2,280.8c0,0-0.4-19.1,14.3-20.2c14.7-1.1,13.4,15.9,9.1,27.3
				c-4.3,11.4-24.1,15.5-24.1,15.5L370.2,280.8z"/>
			<path id="XMLID_253_" fill="#EEB78F" d="M225.5,275.7c0,0,0.4-19.1-14.3-20.2c-14.7-1.1-13.4,15.9-9.1,27.3
				c4.3,11.4,24.1,15.5,24.1,15.5L225.5,275.7z"/>
			<ellipse id="XMLID_252_" cx="261.2" cy="279.4" rx="6.9" ry="8.3"/>
			<ellipse id="XMLID_251_" fill="#FFFFFF" cx="263.8" cy="274.7" rx="2.2" ry="2.7"/>
			<ellipse id="XMLID_250_" cx="337.7" cy="279.4" rx="6.9" ry="8.3"/>
			<ellipse id="XMLID_249_" fill="#FFFFFF" cx="340.3" cy="274.7" rx="2.2" ry="2.7"/>
			<path id="XMLID_247_" fill="#CFA07E" d="M298.8,271c0,0,0.8,10.9-5,25.2c-2.8,6.9-3.5,14.4-0.9,15.4s8,1.8,8,1.8
				s-15,2.7-14.2-5.4C287.7,298.3,294.9,291.7,298.8,271z"/>
			<path id="XMLID_246_" d="M274.3,247.7c-5.9,0.1-20.1,1.2-37.7,7.5c-1.6,0.6-3.4-0.3-3.9-1.9l0,0c-0.4-1.3,0.1-2.8,1.4-3.5
				c4.8-2.8,18.3-9.5,39.9-11.1c1.8-0.1,3.3,1.3,3.3,3v2.9C277.3,246.4,276,247.7,274.3,247.7z"/>
			<path id="XMLID_245_" d="M320.9,247.7c5.9,0.1,20.1,1.2,37.7,7.5c1.6,0.6,3.4-0.3,3.9-1.9l0,0c0.4-1.3-0.1-2.8-1.4-3.5
				c-4.8-2.8-18.3-9.5-39.9-11.1c-1.8-0.1-3.3,1.3-3.3,3v2.9C318,246.4,319.3,247.7,320.9,247.7z"/>
			<path id="XMLID_38_" d="M210.1,189.3c12.1-39.7,95.7-47.5,116.6-48.1c59.9-1.8,45.2,40.7,45.2,40.7s0.8,0.2,2.1,0.6
				c-1,0.4-2,0.4-2.8-0.4c0.8,0.8,11.7,9.9,15.3,17.1c0,14.7-12.5,96.8-12.5,96.8l-3.7-68.7c-0.7-13.1-11.9-23.2-25-22.5
				c-16.6,0.9-32.8,10-47.9,9.8c-16.9-0.2-31.7-7.9-47.3-9.7c-13.6-1.6-25.7,8.9-26.3,22.6l-3.1,68.5c0,0-12.1-85.9-12.1-96.8
				C208.6,195.8,209.2,192.4,210.1,189.3z"/>
			<path id="XMLID_242_" fill="#F1F2F2" d="M259.1,410.4c0,2-26.1,48.2-26.1,48.2l13.1,13.3l-17.3,16.4l27,113.8
				c1.1-1.8,2.2-3.7,3.4-5.5L259.1,410.4z"/>
			<path id="XMLID_241_" fill="#FFFFFF" d="M259.1,596.5c-1.2,1.8-2.3,3.7-3.4,5.5l3.4,14.2L259.1,596.5z"/>
			<path id="XMLID_240_" fill="#FFFFFF" d="M339.2,410.4c0,2,26.1,48.2,26.1,48.2l-13.1,13.3l17.3,16.4l-30.3,128L339.2,410.4z"/>
			<g id="XMLID_231_">
				<path id="XMLID_232_" fill="#BCBEC0" d="M234.1,632.2l-1.2-6.9l4.4-0.7c13.4-2.2,24.4-14.9,27.6-31.4
					c4.1-21.5,7.9-52.5,2.9-77.6l6.9-1.4c5.2,26.2,1.3,58.1-2.9,80.3c-3.7,19.7-16.8,34.3-33.3,37.1L234.1,632.2z"/>
			</g>
			<g id="XMLID_227_">
				<path id="XMLID_228_" fill="#003050" d="M228,635.2l12.9-2.2c0.9-0.2,1.5-1,1.3-1.9l-1.3-7.4c-0.2-0.9-1-1.5-1.9-1.3l-12.9,2.2
					c-0.9,0.2-1.5,1-1.3,1.9l1.3,7.4C226.2,634.7,227.1,635.3,228,635.2z"/>
			</g>
			<path id="XMLID_225_" fill="#003050" d="M276.8,391.1c-0.2,0.7-0.4,1.4-0.7,2c-11,0.3-13.2,3.5-13.6,5.3v0l-1.9,8
				c-8.2,3.4-14.9,8.2-20.2,14.3c-17.3,20-13.6,47.9-13.5,48.1c0.4,2.9-1.6,5.6-4.5,6c-0.2,0-0.5,0.1-0.8,0.1
				c-2.6,0-4.8-1.9-5.2-4.5c-0.2-1.3-4.4-33,16-56.5C242.9,401.7,257.7,394.1,276.8,391.1z"/>
			<path id="XMLID_223_" fill="#003050" d="M377.8,470.3c-0.4,2.6-2.6,4.5-5.2,4.5c-0.2,0-0.5,0-0.7-0.1c-2.9-0.4-4.9-3.1-4.5-6
				c0.1-0.4,3.6-28.4-13.6-48.2c-4.3-4.9-9.5-8.9-15.6-12.1l-2.4-9c-0.7-2.5-2.6-4.3-5.4-5.5c12.9,4,23.4,10.5,31.4,19.7
				C382.2,437.4,378,469,377.8,470.3z"/>
			<polygon id="XMLID_222_" fill="#003050" points="377.8,470.3 372.8,521.9 361.6,521.9 367.4,468.9 			"/>
			<circle id="XMLID_220_" fill="#BCBEC0" cx="366.3" cy="527.3" r="19"/>
			<circle id="XMLID_219_" fill="#E6E7E8" cx="366.3" cy="527.3" r="9.6"/>
			<path id="XMLID_210_" fill="#FFFFFF" d="M234.1,632.2c0,0,2.4,0.4,6.5,1.1c16,2.6,58.6,9.2,97.6,13.7c27.7,3.1,53.5,5.2,66.7,3.8
				c1.3-0.1,2.5-0.3,3.6-0.5c16.8-3.3,27.4-7.2,32.2-17c2.2-4.4,3.2-9.9,3-17.1c-0.5-21.7-4.8-131.6-34.2-172.7
				c1,20.5-6.5,79.5-8.3,114.4c0,0.5,0,1.1-0.1,1.7c0,0.3,0,0.6,0,0.9c0,0-2,7.7,1.2,45.1v0.1c-16.6,2-40.1,1.6-64,0.1
				c-46.6-2.9-94.4-9.6-94.4-9.6L234.1,632.2z"/>
			<path id="XMLID_198_" fill="#CA5C67" d="M328.8,330.4c-9.8,34.6-50.8,32-62.7,0C287.5,336.3,308.4,336.2,328.8,330.4z"/>
			<path id="XMLID_217_" fill="#CFA07E" d="M306.6,360.8h-17.2C289.4,360.8,294.8,367.6,306.6,360.8z"/>
			<path id="XMLID_317_" fill="#EFEFF0" d="M402.3,605.5c-1-20.3-1.5-36.1-1.2-45.1C401.1,560.4,399.1,568.1,402.3,605.5z"/>
			<path id="XMLID_213_" fill="#EEB78F" d="M338.1,605.2c0,0.2,0.1,0.4,0.1,0.6h0.1c12.7,0.8,25.3,1.3,36.8,1.2
				c-1-0.3-1.9-0.7-2.9-1.1c-5.9-2.2-11.7-4.6-17.7-6.6c-0.6-0.2-1.2-0.4-1.8-0.6c-0.6-0.2-1.2-0.4-1.8-0.6
				c-2.9-0.8-5.8-1.6-8.7-2.1l-0.4,7.2C340.6,604,339.3,604.6,338.1,605.2z"/>
			<path id="XMLID_214_" fill="#F0CDB6" d="M332.6,588.9c1.4,3.1,3.4,8.2,5.5,16.3c1.3-0.6,2.5-1.2,3.8-1.8c3.1-1.5,6.2-3,9.3-4.6
				c0,0,0-0.1,0-0.1c0-0.1-0.1-0.2-0.1-0.4c0.6,0.2,1.2,0.4,1.8,0.6c0.6,0.2,1.2,0.4,1.8,0.6c6,2,11.9,4.4,17.7,6.6
				c1,0.4,1.9,0.7,2.9,1.1c0,0,0,0,0,0c0.1,0,0.2,0.1,0.4,0.1c1.2,0.4,2.3,0.8,3.5,1.2c-0.4-0.4-0.8-0.9-1.2-1.3
				c-6.8-7.2-15.3-14.9-22.8-18.6c-7-3.4-12.1-3.6-12.1-3.6C339.3,586.2,335.9,587.6,332.6,588.9z"/>
			<path id="XMLID_211_" fill="#FFFFFF" d="M375.1,607c0.1,0,0.2,0.1,0.4,0.1c1.2,0.4,2.3,0.8,3.5,1.2c-0.4-0.4-0.8-0.9-1.2-1.3
				C376.9,607,376,607,375.1,607z"/>
			<path id="XMLID_208_" fill="#E6E7E8" d="M240.6,633.3c16,2.6,58.6,9.2,97.6,13.7c27.7,3.1,53.5,5.2,66.7,3.8
				c1.3-0.1,2.5-0.3,3.6-0.5c16.8-3.3,27.4-7.2,32.2-17c-21.8,2.1-76.9,6.2-110.3-1c8.2-1.7,8.8-3.5,8.8-3.5l-2.6-14.1L240.6,633.3z
				"/>
			<path id="XMLID_218_" fill="#FFFFFF" d="M148.6,619.9c3,17.6,13.5,25.1,42.9,25.5c3,0,6.1,0,9.5-0.1c3.3-0.1,7.1-0.3,11.1-0.6
				c40.1-3.2,109.8-16.7,129.2-24.7c-1-5.5-2.1-10.1-3.1-14.1c-4.2-16.3-7.8-21-7.8-21s-36.1,8.5-80.3,13.6
				c-18.1,2.1-37.5,3.5-56.4,3.6c1-23.1,1.5-39,1.2-44.2c-1.4-22.9-11.4-88.1-10.9-109.5C155.1,474.1,145.4,600.5,148.6,619.9z"/>
			<path id="XMLID_209_" fill="#EFEFF0" d="M148.6,619.9c3,17.6,13.5,25.1,42.9,25.5c3,0,6.1,0,9.5-0.1c3.3-0.1,7.1-0.3,11.1-0.6
				c40.1-3.2,109.8-16.7,129.2-24.7c-1-5.5-2.1-10.1-3.1-14.1c-4,0.8-116,22.5-150.2,18.1c5.7-21.9,5.7-21.9,5.7-21.9
				c1-23.1,1.5-39,1.2-44.2c-1.4-22.9-11.4-88.1-10.9-109.5C155.1,474.1,145.4,600.5,148.6,619.9z"/>
			<g id="XMLID_233_">
				<path id="XMLID_234_" fill="#003050" d="M271.2,520.1c-2.5,0-4.7-1.7-5.2-4.2c-5.5-27.6-20.1-41-44.5-41
					c-24.5,0-39,13.4-44.5,41c-0.6,2.9-3.3,4.7-6.2,4.1c-2.9-0.6-4.7-3.3-4.1-6.2c6.5-32.3,25.4-49.4,54.9-49.4s48.4,17.1,54.9,49.4
					c0.6,2.9-1.3,5.6-4.1,6.2C271.9,520.1,271.6,520.1,271.2,520.1z"/>
			</g>
			<g id="XMLID_235_">
				<path id="XMLID_236_" fill="#BCBEC0" d="M209,632.2l-4.4-0.7c-16.5-2.8-29.6-17.3-33.3-37.1c-4.2-22.2-8.1-54.1-2.9-80.3
					l6.9,1.4c-5,25.1-1.2,56,2.9,77.6c3.1,16.5,14.2,29.2,27.6,31.4l4.4,0.7L209,632.2z"/>
			</g>
			<g id="XMLID_229_">
				<path id="XMLID_230_" fill="#003050" d="M215.1,635.2l-12.9-2.2c-0.9-0.2-1.5-1-1.3-1.9l1.3-7.4c0.2-0.9,1-1.5,1.9-1.3l12.9,2.2
					c0.9,0.2,1.5,1,1.3,1.9l-1.3,7.4C216.8,634.7,216,635.3,215.1,635.2z"/>
			</g>
			<path id="XMLID_322_" fill="#EEB78F" d="M167.8,596.5l23.9,0.3l2.1,3l1.6,2.2c6.7-0.1,13.4-0.3,20.2-0.7c-4-1.4-7.9-3.2-11.5-5.6
				c-3.1-2.3-6.5-3.7-9.9-4.3c-8.2-1.4-17.2,1.1-26.4,3.2L167.8,596.5z"/>
			<path id="XMLID_320_" fill="#F0CDB6" d="M180.1,572.6l-16.7,5.2l0.2,5.5l15.2-1.2l11.9,3.4l0,0.9l-22.8,4.7l0,3.6
				c9.2-2.1,18.2-4.6,26.4-3.2c3.5,0.6,6.8,1.9,9.9,4.3c3.6,2.4,7.5,4.2,11.5,5.6c8.7-0.5,17.4-1.2,25.8-2c-2.8-1-5.6-2-8.4-3.2
				l-14.8-26l-5.9-9.6l-16-8.1l-1.9-0.5l-17.1-4.5l-2,5.1l11.6,6l4.1,4.1v0.2l-10.7-3l-19.1-0.6l-1.8,5.2l20,4.7l9.2,3.9
				L180.1,572.6z"/>
		</g>
	</g>
	<polygon id="XMLID_76_" fill="#007898" points="939.8,883.1 915.5,907.3 968.1,907.3 	"/>
	<g id="XMLID_72_">
		<g id="XMLID_151_">
			<path id="XMLID_156_" fill="#E0E1E2" d="M947.7,339.4c-8.4,0-36.6,1.6-60.7,21.2c0.8,26.9,9.3,80.7,60.7,105.9
				c51.4-25.3,59.8-79,60.7-105.9C984.3,341,956.1,339.4,947.7,339.4z"/>
			<path id="XMLID_152_" fill="#E0E1E2" d="M1026.5,347.8c-30.5-27.8-68-29.9-78.8-29.9s-48.2,2.2-78.8,29.9l-3.5,3.2v4.8
				c0,18.2,2.7,45.5,15.7,72.3c13.4,27.7,34.4,48,62.3,60.3l4.3,1.9l4.3-1.9c27.9-12.3,48.9-32.6,62.3-60.3
				c12.9-26.8,15.7-54.1,15.7-72.3V351L1026.5,347.8z M947.7,466.6c-51.4-25.3-59.8-79-60.7-105.9c24.1-19.6,52.3-21.2,60.7-21.2
				c8.4,0,36.6,1.6,60.7,21.2C1007.5,387.5,999.1,441.3,947.7,466.6z"/>
		</g>
		<path id="XMLID_150_" fill="#C9CACC" d="M1030,351v4.8c0,18.2-2.7,45.5-15.7,72.3c-13.4,27.7-34.4,48-62.3,60.3l-4.3,1.9V317.9
			c10.8,0,48.2,2.2,78.8,29.9L1030,351z"/>
		<g id="XMLID_73_">
			<g id="XMLID_148_">
				<path id="XMLID_149_" fill="#52CAF5" d="M947.7,328.6v149.8c-56.5-24.8-71.5-81.3-71.5-122.7C901,333.2,931.9,328.6,947.7,328.6
					z"/>
			</g>
			<g id="XMLID_74_">
				<path id="XMLID_135_" fill="#33ACE3" d="M947.7,328.6v149.8c56.5-24.8,71.5-81.3,71.5-122.7
					C994.4,333.2,963.5,328.6,947.7,328.6z"/>
			</g>
		</g>
	</g>
	<g id="XMLID_57_">
		<g id="XMLID_71_">
			<path id="XMLID_97_" fill="#FFFFFF" d="M944.9,428.2l-19.2-11.6l30.4-50.1l19.2,11.6L944.9,428.2z M931.2,415.2l12.4,7.5
				l26.3-43.3l-12.4-7.5L931.2,415.2z"/>
		</g>
		<g id="XMLID_70_">
			<path id="XMLID_94_" fill="#FFFFFF" d="M969.8,379.4l-12.8-7.7l5.2-8.6l12.8,7.7L969.8,379.4z M962.5,370.3l5.9,3.6l1.1-1.7
				l-5.9-3.6L962.5,370.3z"/>
		</g>
		<g id="XMLID_69_">
			
				<rect id="XMLID_93_" x="936.2" y="409" transform="matrix(0.855 0.5186 -0.5186 0.855 349.3914 -427.7817)" fill="#FFFFFF" width="7.3" height="4"/>
		</g>
		<g id="XMLID_68_">
			
				<rect id="XMLID_92_" x="943.6" y="403.3" transform="matrix(0.8551 0.5184 -0.5184 0.8551 347.0943 -431.3927)" fill="#FFFFFF" width="3.6" height="4"/>
		</g>
		<g id="XMLID_67_">
			
				<rect id="XMLID_91_" x="947.6" y="396.7" transform="matrix(0.855 0.5186 -0.5186 0.855 344.4473 -434.5948)" fill="#FFFFFF" width="3.6" height="4"/>
		</g>
		<g id="XMLID_66_">
			
				<rect id="XMLID_90_" x="951.6" y="390.1" transform="matrix(0.8551 0.5185 -0.5185 0.8551 341.4728 -437.5604)" fill="#FFFFFF" width="3.6" height="4"/>
		</g>
		<g id="XMLID_65_">
			
				<rect id="XMLID_89_" x="952.3" y="382.5" transform="matrix(0.855 0.5186 -0.5186 0.855 337.9659 -439.9897)" fill="#FFFFFF" width="7.3" height="4"/>
		</g>
		<g id="XMLID_64_">
			
				<rect id="XMLID_88_" x="972.6" y="343.6" transform="matrix(0.855 0.5186 -0.5186 0.855 326.4932 -453.6408)" fill="#FFFFFF" width="4" height="27"/>
		</g>
		<g id="XMLID_63_">
			
				<rect id="XMLID_87_" x="918" y="433.7" transform="matrix(0.855 0.5186 -0.5186 0.855 360.3634 -417.6925)" fill="#FFFFFF" width="18.5" height="4"/>
		</g>
		<g id="XMLID_62_">
			
				<rect id="XMLID_86_" x="929.8" y="419.4" transform="matrix(0.855 0.5186 -0.5186 0.855 357.1447 -421.1454)" fill="#FFFFFF" width="4" height="17.5"/>
		</g>
		<g id="XMLID_59_">
			<g id="XMLID_61_">
				
					<rect id="XMLID_85_" x="933.4" y="421.5" transform="matrix(0.8002 0.5998 -0.5998 0.8002 445.0189 -475.0036)" fill="#FFFFFF" width="4" height="17.6"/>
			</g>
			<g id="XMLID_60_">
				
					<rect id="XMLID_84_" x="926.3" y="417.2" transform="matrix(0.9017 0.4323 -0.4323 0.9017 275.4099 -359.4284)" fill="#FFFFFF" width="4" height="17.6"/>
			</g>
		</g>
		<g id="XMLID_58_">
			
				<rect id="XMLID_83_" x="919.6" y="418.7" transform="matrix(0.855 0.5186 -0.5186 0.855 353.8858 -424.5707)" fill="#FFFFFF" width="33.6" height="4"/>
		</g>
	</g>
	<g id="XMLID_46_">
		<g id="XMLID_47_">
			<g id="XMLID_48_">
				<path id="XMLID_56_" fill="#6A3B00" d="M1154.9,625.3v35.1c0,8.8-7.1,15.9-15.9,15.9h-64.1c-8.8,0-15.9-7.1-15.9-15.9v-35.1
					H1154.9z"/>
				<path id="XMLID_55_" fill="#6A3B00" d="M1154.9,562.8v11.1h-96v-11.1c0-5.3,1-10.5,3-15.2c2-4.8,4.9-9.2,8.6-12.9
					c6.5-6.5,10.6-15.1,11.5-24.2h49.7c0.4,3.9,1.4,7.7,2.8,11.3c2,4.8,4.9,9.2,8.6,12.9C1150.7,542.1,1154.9,552.3,1154.9,562.8z"
					/>
				<path id="XMLID_54_" fill="#6A3B00" d="M1135.2,500.6c1.8,0,3.2,1.4,3.2,3.2v3.5c0,1.8-1.4,3.2-3.2,3.2h-3.5
					c-0.1-1.3-0.2-2.6-0.2-3.9v-5.9H1135.2z"/>
				<path id="XMLID_53_" fill="#FFFFFF" d="M1129.8,448.1c4,0,7.2,3.2,7.2,7.2V488h-5.5h-49.3h-5.5v-32.7c0-4,3.2-7.2,7.2-7.2
					H1129.8z"/>
				<path id="XMLID_52_" fill="#6A3B00" d="M1131.7,510.5H1082c0.1-1.3,0.2-2.6,0.2-3.9v-5.9h49.3v5.9
					C1131.5,507.8,1131.6,509.2,1131.7,510.5z"/>
				<rect id="XMLID_51_" x="1082.2" y="488" fill="#6A3B00" width="49.3" height="12.6"/>
				<rect id="XMLID_50_" x="1058.9" y="573.9" fill="#EBA29B" width="96" height="65.1"/>
				<path id="XMLID_49_" fill="#6A3B00" d="M1082.2,500.6v5.9c0,1.3-0.1,2.6-0.2,3.9h-3.5c-1.8,0-3.2-1.4-3.2-3.2v-3.5
					c0-1.8,1.4-3.2,3.2-3.2H1082.2z"/>
			</g>
		</g>
	</g>
	<g id="XMLID_29_">
		<path id="XMLID_37_" fill="#C86D6F" d="M704.5,449.6c8.4,39.2,28.5,58.1,68.2,58.1s60.2-25.7,70.9-58.1
			C793.1,446.9,704.5,449.6,704.5,449.6z"/>
		<path id="XMLID_33_" fill="#A05658" d="M700,449c9,21.8,30.4,32.3,72.6,32.3s64.1-14.3,75.5-32.3C794.3,447.5,700,449,700,449z"/>
		<path id="XMLID_32_" fill="#E48682" d="M717.7,452.2c-0.1,34.5,7.9,55.5,22.7,74.6c11.9,15.4,46.5,14.3,59,0
			c12.6-14.3,32.7-59.1,26.7-72.5C820,440.9,744.9,442.7,717.7,452.2z"/>
		<path id="XMLID_31_" fill="#E37670" d="M745.6,456.6c0,0,18.3-3,21,18c2.7,20.9,5.8,41.2,5.8,41.2s3.7-33.1,6.4-41.9
			s5.9-16.9,16.9-17.4C806.6,456,767.1,447.4,745.6,456.6z"/>
		<path id="XMLID_30_" fill="#C86D6F" d="M700,450.8c0,0,33.9-5.8,51.2-15.3c4.4-2.4,9.9-3.2,14.8-1.7c6.3,1.9,11.5,1,15.1-0.4
			c4.3-1.6,9.2-1.8,13.6-0.2c14,5,42.4,15.1,53.4,17.7C761.8,465.6,700,450.8,700,450.8z"/>
	</g>
	<g id="XMLID_17_">
		<g id="XMLID_19_">
			<path id="XMLID_28_" fill="#F0CDB6" d="M953.2,803.3h-8.9c-37,0-67-30-67-67v-25.9c0-37,30-67,67-67h8.9c37,0,67,30,67,67v25.9
				C1020.2,773.3,990.2,803.3,953.2,803.3z"/>
			<g id="XMLID_27_">
				<path id="XMLID_82_" fill="#6F5F54" d="M920.6,748c-7.5,0-13.5-6.1-13.5-13.5h5c0,4.7,3.8,8.5,8.5,8.5c4.7,0,8.5-3.8,8.5-8.5h5
					C934.1,741.9,928,748,920.6,748z"/>
			</g>
			<g id="XMLID_26_">
				<path id="XMLID_81_" fill="#6F5F54" d="M979.2,748c-7.5,0-13.5-6.1-13.5-13.5h5c0,4.7,3.8,8.5,8.5,8.5s8.5-3.8,8.5-8.5h5
					C992.7,741.9,986.7,748,979.2,748z"/>
			</g>
			<path id="XMLID_25_" fill="#FFFFFF" d="M990.2,723.3c-27.7-3.3-55.2-3.3-82.7,0v-32.5c27.6-4,55.1-4,82.7,0V723.3z"/>
			<path id="XMLID_24_" fill="#F0CDB6" d="M887.2,752h-11c-8.6,0-15.6-7-15.6-15.6v-2.8c0-7.3,5.9-13.3,13.3-13.3h13.4V752z"/>
			<path id="XMLID_23_" fill="#F0CDB6" d="M1011.6,752h11c8.6,0,15.6-7,15.6-15.6v-2.8c0-7.3-5.9-13.3-13.3-13.3h-13.4V752z"/>
			<g id="XMLID_22_">
				<path id="XMLID_80_" fill="#FFFFFF" d="M961.9,772.2c-0.9,0-1.7-0.4-2.2-1.2c-0.7-1.2-0.3-2.7,0.9-3.4l19-11.3
					c1.2-0.7,2.7-0.3,3.4,0.9c0.7,1.2,0.3,2.7-0.9,3.4l-19,11.3C962.8,772.1,962.3,772.2,961.9,772.2z"/>
			</g>
			<g id="XMLID_21_">
				<path id="XMLID_79_" fill="#DBA794" d="M967.3,776.2h-5c0-4.6-6.2-8.5-13.5-8.5s-13.5,3.9-13.5,8.5h-5c0-7.6,8.1-13.5,18.5-13.5
					S967.3,768.6,967.3,776.2z"/>
			</g>
			<path id="XMLID_20_" fill="#6F5F54" d="M929.8,627.2c0,0-18.4,21.6-5.3,34.2c13.1,12.6,38.6,0,38.6,0s12.7-6.1,6.7-20.3
				C963.8,626.9,928.5,642.2,929.8,627.2z"/>
		</g>
		<path id="XMLID_18_" fill="#CFEDFC" d="M1008.1,706.9c-5.3,8.7-6.1,16.5,0,16.5C1014.3,723.4,1013.4,715.6,1008.1,706.9z"/>
	</g>
	<g id="XMLID_10_">
		<g id="XMLID_12_">
			<path id="XMLID_16_" fill="#FFFFFF" d="M975.4,527.2c0,0-93.3,49.5-106.3,56.4s-9.6,11-19.3,16.2c0.9,1.7,0.9,1.7,0.9,1.7
				l130-68.9L975.4,527.2z"/>
			<path id="XMLID_15_" fill="#CFD1D2" d="M982.1,540c0,0-93.3,49.5-106.3,56.4s-14.5,1.7-24.2,6.9c-0.9-1.7-0.9-1.7-0.9-1.7
				l130-68.9L982.1,540z"/>
			<path id="XMLID_14_" fill="#BC4E43" d="M978.7,533.6l61.4-32.5c-12.5-23.6-41.1,4.1-48.3,10.5c-7.2,6.3-15.7,3.6-15.7,3.6l-5.6,3
				L978.7,533.6z"/>
			<path id="XMLID_13_" fill="#A64439" d="M978.7,533.6l61.4-32.5c12.5,23.6-26.4,31.7-35.7,34.1c-9.3,2.4-11.8,11-11.8,11l-5.6,3
				L978.7,533.6z"/>
		</g>
		<path id="XMLID_11_" fill="#FDB714" d="M849.8,604.8c-8.9,14.5-10.3,27.5,0,27.5C860.1,632.3,858.7,619.2,849.8,604.8z"/>
	</g>
	<g id="XMLID_4_">
		<path id="XMLID_9_" fill="#F0CDB6" d="M754,624c0,0,13.7-39.7,48-35.3c34.3,4.3,32.3,55.3,25.7,79.3c-6.7,24-33.7,43-53.3,41.3
			c-19.7-1.7-19.3-23.7-18.7-30.3C756.4,672.4,747.1,637.6,754,624z"/>
		<path id="XMLID_8_" fill="#EEB78F" d="M804.9,655.9c0,0,3-12.3-7-19c-10-6.7-17.3-8.3-16.7-11.7s7.4,5.7,12-2.7
			c4.6-8.3,7.3-11,14.6-5.7c7.3,5.3,10.3,21.7,10.3,21.7s1.7-25.3-10-34c-11.7-8.7-32.3-9.3-33.7,10.3c-1.3,19.7,3.1,27.4,14.4,31
			C800.2,649.6,804.9,655.9,804.9,655.9z"/>
		<path id="XMLID_7_" fill="#EEB78F" d="M800.4,671.6c0,0-18.3,8-26,7.3c-7.7-0.7-14.7-8.7-5.3-9.3c9.3-0.7,6.3-12.3,8.3-15.7
			c2-3.3,4.3-3.7,13.3,0C799.7,657.6,807,664.6,800.4,671.6z"/>
		<g id="XMLID_6_">
			<path id="XMLID_78_" fill="#DBA78A" d="M794.7,694.9c-0.8,0-1.5-0.4-1.8-1.2c-0.4-1,0-2.2,1-2.6c22.9-10,28.7-51.3,20.3-73
				c-4.4-11.3-13.1-18.8-21.8-18.8c-0.1,0-0.3,0-0.4,0c-6.9,0.2-12.4,5.2-15.2,13.8c-6.9,21.2,14.7,31.6,15.7,32
				c1,0.5,1.4,1.7,1,2.7c-0.5,1-1.7,1.4-2.7,1c-0.3-0.1-25.8-12.3-17.8-36.9c3.3-10.3,10.2-16.3,18.8-16.5
				c10.5-0.3,21,8.3,26.1,21.3c8.9,23,3.3,66.9-22.4,78.1C795.2,694.8,795,694.9,794.7,694.9z"/>
		</g>
		<g id="XMLID_5_">
			<path id="XMLID_77_" fill="#DBA78A" d="M779.9,682.8c-2.4,0-4.7-0.3-6.7-0.7c-5.5-1.2-9.3-3.7-10-6.7c-0.3-1.1-0.3-3.3,2.2-5.4
				c8.7-7.1,9.3-7.8,9.6-11.6l0-0.7c0.2-2.8,0.4-7.1,3.9-8.8c3.5-1.7,8.8-0.1,16.8,5.2c0.9,0.6,1.2,1.9,0.6,2.8
				c-0.6,0.9-1.9,1.2-2.8,0.6c-8.8-5.9-11.9-5.4-12.8-5c-1.4,0.7-1.6,3.5-1.7,5.5l0,0.7c-0.4,5.6-2.1,7.1-11.1,14.4
				c-0.5,0.4-1,0.9-0.9,1.4c0.2,0.9,2.3,2.7,6.9,3.7c7.9,1.7,18.6-0.1,24.8-7.9c11.8-15.1-6.5-34.5-6.7-34.7
				c-0.8-0.8-0.7-2.1,0.1-2.8c0.8-0.8,2.1-0.7,2.8,0.1c0.2,0.2,20.8,22.1,6.9,40C796.1,680.3,787.4,682.8,779.9,682.8z"/>
		</g>
	</g>
</g>
</svg>
